<?xml version="1.0" encoding="iso-8859-1"?>
<!-- Generator: Adobe Illustrator 19.0.0, SVG Export Plug-In . SVG Version: 6.00 Build 0)  -->
<svg version="1.1" id="Capa_1" xmlns="http://www.w3.org/2000/svg" xmlns:xlink="http://www.w3.org/1999/xlink" x="0px" y="0px"
	 viewBox="0 0 117.319 117.319" style="enable-background:new 0 0 117.319 117.319;" xml:space="preserve">
<g id="_x30_304-death-scythe">
	<g>
		<path style="fill-rule:evenodd;clip-rule:evenodd;" d="M114.295,17.233c-3.003-1.311-6.868-0.677-9.688-2.383
			c0.837-1.123,0.659-4.205-0.032-5.28c-1.735-2.697-6.094-5.072-9.119-2.985c-1.123,0.775-1.436,2.302-2.373,3.04
			c-0.322,0.253-0.702,0.336-1.116,0.304c-1.619-0.126-3.755-2.024-4.885-2.479c-3.244-1.303-6.992-1.863-10.449-2.222
			C69.047,4.441,61.394,5.203,53.87,6.231c-6.676,0.911-12.908,2.85-19.195,5.223c-5.455,2.059-11.307,4.287-16.365,7.196
			c-2.885,1.66-5.131,3.947-7.892,5.816c-1.325,1.176-4.49,3.47-3.989,5.575c0.685,2.88,4.431,0.263,5.773-0.377
			c2.788-1.333,6.115-2.012,9.07-2.907c6.572-1.998,13.221-3.755,19.99-4.943h5.159c1.193,0,3.758,0.505,4.592-0.422
			c1.489-1.653,3.218-3.602,5.505-4.222c0.359,1.384,1.061,2.628,1.94,3.747c0.914,1.162,1.041,1.28,2.456,0.871
			c2.346-0.681,3.957,0.304,6.217,0.359c0.677,0.97,3.506,0.95,4.351,0.536c0.274-0.134,2.612-2.308,2.816-2.181
			c0.832,0.516-0.965,4.583,0.302,5.881c2.662,2.734,6.578,4.043,9.887,5.624c1.177,0.561,2.273,0.909,3.563,1.274
			c1.192,0.338,2.496,0.567,2.653,1.714c0.207,1.515-0.368,3.274-0.556,4.789c-0.206,1.663-0.762,3.221-1.097,4.858
			c-0.565,2.768-1.134,5.535-1.766,8.289c-1.135,4.945-1.753,9.918-2.763,14.892c-1.456,7.163-3.271,14.174-4.777,21.293
			c-0.427,2.02-1.306,3.834-1.717,5.85c-0.381,1.868-0.744,3.741-1.048,5.622c-0.317,1.973-0.569,3.957-0.725,5.948
			c-0.156,1.977-0.408,3.095,1.033,4.524c2.053,2.039,5.896,0.447,6.136-2.314c0.324-3.724,0.98-7.64,1.807-11.291
			c0.861-3.794,1.292-7.636,2.031-11.479c0.734-3.818,1.947-7.502,2.747-11.3c0.91-4.314,1.518-8.684,2.175-13.041
			c0.5-3.317,1.79-6.634,2.244-9.983c0.291-2.143,1.094-4.171,1.434-6.305c0.262-1.647,1.443-3.15,2.054-4.758
			c0.451-1.188,1.01-4.159,2.479-3.58c1.7,0.667,3.365,1.989,5.26,1.959c1.969-0.029,3.729-1.315,5.141-2.569
			c1.524-1.349,2.051-3.121,2.536-5.025c0.578-2.271,1.806-4.454,2.901-6.533C117.912,21.654,117.915,18.812,114.295,17.233z
			 M95.564,9.484c1.371-1.187,4.092-0.141,2.941,1.826c-1.12,1.916-2.905,1.16-3.39-0.031C94.878,10.697,94.951,10.012,95.564,9.484
			z M110.131,25.678c-0.946,2.809-2.209,5.506-2.871,8.407c-2.682-0.805-5.214-2.053-7.96-2.654
			c0.182-1.195,1.696-1.023,2.362-1.765c1.197-1.333-0.645-2.157-1.699-2.214c-1.668,0.247-3.31,0.763-4.774,1.623
			c-1.758,1.033-2.395,0.157-4.181-0.296c2.184-2.803,6.896-1.694,8.955-4.644c-1.014-3.873-7.746,0.196-9.578,1.176
			c-1.239,0.66-3.062,2.09-4.339,1.431c-0.953-0.491-1.988-0.809-3.017-1.095c-1.068-0.3-2.15-0.56-3.204-0.909
			c-1.478-0.491-0.706-3.486-0.944-4.672c-0.225-1.117,0.141-4.065-1.082-4.521c-0.836-0.312-2.514,0.83-3.187,1.182
			c-0.962,0.506-2.76,2.077-3.835,2.102c-1.119,0.024-10.363-1.812-10.281-0.997c-2.248-2.132-2.027-4.911-5.856-3.262
			c-1.463,0.63-2.736,1.588-4.062,2.448c-1.51,0.983-2.691,0.746-4.453,0.744c-6.59-0.012-13.117,0.946-19.458,2.723
			c0.621-2.171,5.297-2.897,7.045-3.9c3.039-1.741,7.075-2.724,10.468-3.661c7.617-2.102,15.6-3.272,23.488-3.5
			c4.513-0.133,10.34-1.021,14.493,1.129c1.07,0.552,1.777,1.584,2.894,2.053c0.997,0.42,1.926,0.734,2.9,1.315
			c2.738,1.631,5.906,2.55,8.844,3.523c1.751,0.577,3.34,1.688,5.107,2.157c1.338,0.355,2.694,0.497,4.052,0.63
			c1.773,0.173,3.549,0.33,5.282,0.917C111.022,22.694,110.628,24.202,110.131,25.678z M72.298,66.641
			c-0.302-0.426-0.577-0.87-0.824-1.331c-0.652-1.203-1.15-2.481-1.633-3.757c-1.313-3.466-2.997-6.766-4.752-10.03
			c-1.472-2.738-2.787-6.156-5.141-8.228c-5.181-4.558-11.483-9.595-18.736-9.591c-4.318,0-8.394,0.23-12.465,1.676
			c-3.459,1.227-6.336,2.693-9.314,4.736c-3.186,2.183-6.181,4.664-8.933,7.375c-2.629,2.589-5.489,5.402-7.17,8.721
			c-0.837,1.657-1.762,3.323-2.383,5.076c-0.718,2.028-0.48,4.187-0.48,6.293c0,3.209,1.045,6.311,2.64,9.071
			c3.054,5.286,7.367,9.328,7.985,15.658c0.317,3.235-5.543,4.721-7.273,6.88c-0.551,0.689-6.087,8.688-2.766,8.615
			c0.605-0.012,1.989-1.484,2.398-1.089c0.849,1.219-0.635,2.764,0.332,3.979c1.477,0.141,2.466-0.524,3.317-1.657
			c1.227-0.624,1.996-1.831,2.985-2.75c0.354-0.326,0.915-1.168,1.43-1.166c-0.262,1.568-1.703,2.936-2.493,4.267
			c-0.482,0.813-0.772,1.751-0.265,2.634c3.377,1.39,3.826-4.391,6.214-3.394c1.63,0.679,3.192-1.627,4.088-2.628
			c0.565-0.63,1.188-1.193,1.752-1.818c0.299-0.332,1.26-1.543,1.814-1.213c-0.611,1.651-1.43,3.262-1.947,4.948
			c-0.403,1.313-0.25,2.503,1.422,2.079c0.85-0.218,1.373-1.034,1.988-1.588c1.166-1.054,0.836,0.028,1.363,0.518
			c0.346,0.324,1.061,0.238,1.216,0.777c-0.436,0.459-0.416,1.178-0.24,1.737c0.42,1.333,1.897,1.146,2.813,0.369
			c0.757-0.64,1.164-1.637,2.071-2.106c1.584-0.041,2.826-0.95,4.312-1.327c-1.894,2,0.35,5.265,2.447,2.776
			c0.877-1.04,1.714-2.089,2.661-3.07c0.928-0.958,1.467-2.283,2.286-3.347c0.444-0.575,1.092-1.356,1.064-0.179
			c-0.023,1.003-0.55,1.963-0.587,2.978c-0.063,1.755,1.842,1.366,2.893,0.62c2.133-1.513,2.322-4.154,3.345-6.356
			c0.119-0.257,0.699-1.798,1.15-1.607c0.395,0.169,0.124,1.134-0.238,2.051c-0.3,0.762-0.663,1.49-0.759,1.702
			c-0.851,1.89-1.328,3.645,0.34,5.251c1.139,1.095,3.213,0.82,3.935-0.565c0.22-0.422,1.143-3.062,1.845-2.73
			c0.426,0.202,0.302,1.142,0.252,1.476c-0.105,0.701-0.477,2.02-0.046,2.681c0.448,0.687,1.538,0.277,2.135,0.022
			c1.119-0.471,2.369-1.137,3.035-2.183c0.312-0.489,0.877-2.55,1.587-1.368c0.655,1.091-0.408,2.151-0.117,3.237
			c0.308,1.162,1.902,2.155,2.959,1.272c0.766-0.638,0.789-1.859,1.32-2.662c1.294,1.056,2.927,0.338,3.899-0.775
			c0.827-0.946-0.157-2.554-0.702-3.521c-1.162-2.059-2.842-4.193-4.435-5.924c-1.954-2.124-3.413-4.654-4.399-7.359
			c0.711-0.699,0.353-1.912,0.995-2.654c0.329-0.993,0.921-2.187,1.658-2.819c1.79-1.537,3.356-3.235,5.084-4.699
			c0.752-0.64,1.492-1.144,1.86-1.947c0.422-0.92,0.983-2.412,1.68-3.137c1.33-1.39,0.498-5.107,0.121-6.688
			C72.664,67.906,72.881,67.456,72.298,66.641z M49.251,39.689c0.371,0.245,0.881,1.602,0.475,1.91
			c-0.476,0.361-1.389-0.273-1.65-0.667c-0.037-0.055-0.062-0.108-0.076-0.159C47.878,40.301,48.755,39.361,49.251,39.689z
			 M43.679,42.488c0.219-0.726,0.613-1.311,0.568-2.102c0.798-0.014,0.504,1.439,0.396,1.863c-0.078,0.304-0.172,0.895-0.356,1.146
			c-0.14,0.189-0.43,0.306-0.629,0.173c-0.035-0.022-0.067-0.053-0.095-0.092C43.409,43.258,43.608,42.718,43.679,42.488z
			 M51.42,74.943c-0.804,1.154-1.867,2.084-2.905,3.017c-0.997,0.895-1.732,1.89-2.611,2.886c-0.297,0.965-1.502,1.144-1.635,2.195
			c0.005,0.14,0.009,0.407,0.01,0.675c0.207,2.475,1.359,8.659-0.095,9.723c-1.704,1.248-4.041,1.576-6.091,1.692
			c-2.328,0.133-4.73-0.047-6.986-0.66c-2.071-0.565-2.272-3.659-2.467-5.594c-0.493-4.899-4.134-8.05-6.416-12.211
			c-1.566-2.856-2.812-5.967-2.001-9.249c0.617-2.501,1.659-4.888,3.14-6.998c2.98-4.246,7.481-7.051,12.128-9.165
			c4.82-2.195,9.478,0.443,12.374,4.469c3.077,4.277,4.551,9.475,4.382,14.728C52.202,71.908,52.273,73.72,51.42,74.943z
			 M56.518,52.656c0.933,0.061,1.413,0.577,1.326,1.659C56.618,54.546,56.379,53.79,56.518,52.656z M57.249,69.474
			c-0.045-0.811,1.085-1.459,1.672-0.742c0.384,0.469,0.595,1.066,0.54,1.67c-0.038,0.404-0.13,0.65-0.329,0.74
			c-0.152,0.065-0.365,0.041-0.664-0.079C57.793,70.793,57.29,70.216,57.249,69.474z M60.11,75.506
			c-0.064,0.279-0.196,0.434-0.361,0.491c-0.534,0.196-1.42-0.575-1.516-1.148c-0.026-0.155,0.015-0.966,0.274-0.966
			C59.321,73.883,60.337,74.522,60.11,75.506z M60.1,61.059c-0.185,0.595-1.069,0.838-1.601,0.567
			c-0.225-0.114-0.388-0.322-0.406-0.634c-0.052-0.881,0.758-1.407,1.544-1.396C60.401,59.605,60.262,60.537,60.1,61.059z
			 M62.066,80.959c-0.005,0.073-0.026,0.169-0.06,0.279c-0.19,0.595-0.778,1.547-1.267,0.997c-0.472-0.532-0.049-1.93,0.548-2.208
			C61.995,79.699,62.102,80.421,62.066,80.959z M64.145,60.284c0.445,0.218,0.618,0.709,0.664,1.327
			C64.225,61.532,64.053,61.041,64.145,60.284z M63.482,75.541c-0.445-0.218-0.618-0.709-0.664-1.327
			C63.817,73.879,63.406,74.954,63.482,75.541z M63.151,63.933c-0.864-0.328,0.382-2.022,0.994-0.995
			C64.247,63.703,63.187,63.306,63.151,63.933z M66.136,68.907c0.002,0.094-1.153-0.377-1.258-0.459
			c-0.352-0.273-0.592-0.687-0.67-1.125c-0.168-0.962,1.026-1.765,1.794-1.019c0.318,0.308,0.465,0.862,0.481,1.291
			C66.502,68.145,66.123,68.406,66.136,68.907z M44.247,83.169c0.002-0.047,0.017-0.083,0.022-0.127
			C44.264,82.901,44.256,82.889,44.247,83.169z M44.279,83.718c-0.017-0.208-0.03-0.399-0.032-0.549
			C44.271,85.083,44.282,84.422,44.279,83.718z M43.578,66.559c-2.565,1.301-6.032,5.27-2.907,7.83
			c1.705,1.398,4.95-0.397,6.169-1.894c1.338-1.641,1.601-3.877,0.868-5.253C47.07,66.041,45.676,65.495,43.578,66.559z
			 M33.756,74.568c1.125-1.496,0.31-3.957-0.773-5.51c-1.041-1.494-3.225-2.905-5.114-2.799c-1.821,0.106-3.366,1.733-2.948,3.58
			c0.33,1.453,2.213,3.37,3.274,4.418c0.967,0.954,2.591,1.777,3.992,1.343C32.912,75.376,33.421,75.015,33.756,74.568z
			 M39.34,84.15c0.045-0.408-0.118-0.952-0.326-1.492c-0.208-0.542-0.46-1.083-0.59-1.478c-0.292-0.897-0.659-3.16-1.993-2.713
			c-0.974,0.324-1.717,2.193-2.109,3.041c-0.986,2.13-0.218,3.082,1.985,3.137C36.684,84.653,39.292,84.578,39.34,84.15z
			 M40.67,88.008c-0.263-0.1-0.481-0.1-0.661-0.026c-0.738,0.298-0.839,1.798-0.751,2.462c0.169,1.268,1.187,1.113,2.162,0.801
			C41.722,90.341,41.763,88.424,40.67,88.008z M33.964,91.46c0.648-0.746,0.29-2.493,0-3.317
			C31.004,87.101,31.373,92.385,33.964,91.46z M37.323,88.143c-0.487-0.124-0.846-0.026-1.098,0.2
			c-0.546,0.493-0.624,2.004-0.355,2.664c0.164,0.402,0.995,0.454,1.343,0.302c0.472-0.212,0.558-1.011,0.587-1.466
			C37.83,89.391,37.884,88.29,37.323,88.143z"/>
	</g>
</g>
<g>
</g>
<g>
</g>
<g>
</g>
<g>
</g>
<g>
</g>
<g>
</g>
<g>
</g>
<g>
</g>
<g>
</g>
<g>
</g>
<g>
</g>
<g>
</g>
<g>
</g>
<g>
</g>
<g>
</g>
</svg>
