<?xml version="1.0" encoding="iso-8859-1"?>
<!-- Generator: Adobe Illustrator 19.0.0, SVG Export Plug-In . SVG Version: 6.00 Build 0)  -->
<svg version="1.1" id="Capa_1" xmlns="http://www.w3.org/2000/svg" xmlns:xlink="http://www.w3.org/1999/xlink" x="0px" y="0px"
	 viewBox="0 0 120.844 120.844" style="enable-background:new 0 0 120.844 120.844;" xml:space="preserve">
<g id="_x30_202-spooky-skull">
	<g>
		<path style="fill-rule:evenodd;clip-rule:evenodd;" d="M110.279,61.405c-0.429-2.336-0.323-4.672-0.323-7.039
			c0.238-1.551,1.144-2.758,1.869-4.102c1.662-3.074,0.947-8.022,0.457-11.371c-0.44-3.017-2.609-5.749-4.803-7.838
			c-0.98-0.934-2.316-1.551-2.829-2.893c0.149-1.635-0.543-2.974-0.877-4.521c-0.745-3.472-3.771-7.202-5.926-9.991
			c-2.152-2.783-4.566-5.567-7.726-7.161c-6.296-3.178-12.42-5.056-19.386-6.05c-7.793-1.111-16.797,0.035-24.425,1.835
			c-7.405,1.747-14.583,4.407-21.04,8.47C12.507,18.773,7.475,32.59,7.475,47.116c0,3.27,0.522,6.517,0.735,9.775
			c0.223,3.41,0.369,6.856,1.271,10.17c1.826,6.721,4.967,13.736,10.291,18.422c5.329,4.693,11.244,8.566,18.344,9.545
			c1.828,0.253,1.473,0.832,1.482,2.45c0.034,5.908,1.192,11.822,6.506,15.206c5.921,3.769,12.213,5.853,19.09,7.178
			c2.985,0.575,6.124,0.895,9.163,0.97c9.423,0.234,18.935-2.925,26.452-8.576c2.347-1.765,5.397-5.225,6.35-8.042
			c0.68-2.008,0.716-4.189,0.804-6.283c0.141-3.298-0.275-6.395-0.575-9.628c-0.019-0.2-0.103-0.495-0.13-0.771
			c-0.016-0.165-0.013-0.322,0.037-0.448c0.547-1.37,2.841-2.648,3.822-3.747c1.498-1.682,2.317-3.527,2.248-5.81
			C113.203,72.142,111.248,66.684,110.279,61.405z M101.433,104.214c-1.598,2.946-4.261,5.023-6.733,7.196
			c-0.554-0.079-1.729,0.559-2.362,0.705c-1.116,0.255-2.229,0.53-3.341,0.805c-1.956,0.481-3.911,0.966-5.885,1.37
			c-4.345,0.883-8.368,1.003-12.748,0.758c-2.547-0.141-4.96-0.72-7.503-0.987c-1.729-0.316-3.158-1.366-4.975-1.325
			c-1.947-1.488-3.79-3.103-5.667-4.674c-1.075-0.901-2.163-1.786-3.287-2.624c-0.163-0.74-0.375-1.466-0.614-2.183
			c-0.624-1.886-1.398-3.72-1.788-5.675c-0.227-1.146-0.948-4.446,0.064-5.312c0.839-0.72,1.795-1.584,2.749-2.171
			c1.414-0.868,2.52-2.111,4.002-2.942c-0.183,0.07-0.178,0.046,0.562-0.289c1.669,0,1.205,6.799,1.358,8.299
			c0.143,1.39-0.068,2.56,0.016,3.908c0.047,0.742,0.336,1.513,1.037,1.869c1.828,0.934,3.035-0.915,3.212-2.293
			c0.129-1.021,5.363,0.728,6.316,0.822c-0.298,1.476-1.207,5.579,1.327,5.636c2.398-0.2,2.566-2.921,3.115-4.723
			c0.341-1.121,5.197,0.194,6.503,0.081c0.085,1.965-1.007,6.943,1.991,7.296c2.455-0.251,2.85-2.23,2.78-4.346
			c-0.042-1.254-0.701-2.846,0.705-3.066c1.391-0.216,2.766-0.52,4.18-0.559c1.585-0.041,0.919,1.69,1.278,3.007
			c0.271,0.989,0.806,1.916,1.742,2.403c2.602,1.36,2.971-2.236,2.593-3.883c-0.318-1.384-1.039-2.95,0.537-3.205
			c1.059-0.173,1.945-1.694,2.365-0.065c0.537,2.088,3.355,3.51,4.382,0.758c0.288-1.219-1.401-3.249-0.832-4.148
			c0.465-0.73,1.525-0.756,1.495-1.821c0.876-0.514,1.602-1.186,2.653-1.327C103.007,95.825,103.588,100.241,101.433,104.214z
			 M105.644,81.227c-0.272-1.865-0.41-4.719-2.653-5.306c-3.436-0.222-1.502,5.832-1.161,7.465c0.291,1.394,1.322,4.081-0.66,4.511
			c-1.276,0.277-2.211,1.743-3.486,1.623c0.021-1.896-0.12-4.324-2.653-3.979c-1.157,0.659-0.099,3.576-0.349,4.813
			c-0.333,1.655-0.924,3.015-2.609,3.647c-1.677,0.628-1.325-0.418-1.619-1.694c-0.239-1.044-0.677-2.01-0.773-3.074
			c-0.17-1.888-1.994-2.948-2.915-0.875c-0.533,1.207-0.027,2.917-0.025,4.146c0,1.262,0.568,2.876-0.833,3.202
			c-1.229,0.287-2.49,0.424-3.751,0.449c-1.627,0.033-1.083-0.952-1.072-2.306c0.007-1.015,0.021-2.032-0.05-3.048
			c-0.064-0.934-0.17-3.198-0.923-3.902c-0.843-0.787-2.016,0.243-2.436,1.105c-0.516,1.062-0.532,2.348-0.592,3.502
			c-0.081,1.541,0.369,5.096-1.605,4.909c-1.56-0.149-3.096-0.469-4.658-0.595c0.006-1.062,0.05-2.124,0.023-3.188
			c-0.042-1.778-0.256-4.248-2.345-4.772c-3.002,0.762-2.356,5.361-2.321,7.63c-1.557-0.314-3.136-0.563-4.659-1.027
			c-1.687-0.516-1.62-0.711-1.719-2.389c-0.137-2.316-0.386-4.748-1.373-6.878c-2.3-4.974-6.108-2.442-9.495-0.318
			c-1.166,1.052-2.447,1.967-3.63,3.003c-1.279,1.121-1.14,1.345-2.743,0.76c-3.245-1.188-6.795,0.077-9.508-2.807
			c-3.439-3.663-8.142-6.371-10.378-11.049c-0.995-2.081-1.909-4.197-2.658-6.381c-2.696-7.856-3.347-16.141-3.066-24.397
			c0.228-6.715,1.678-14.58,5.208-20.397c0.865-1.427,2.539-3.04,2.895-4.733c0.685,0.801,0.356,2.308,0.306,3.249
			c-0.07,1.331,0.271,2.471,1.015,3.59c1.488,2.24,4.642,0.479,6.739-0.106c1.634-0.455,2.553-0.944,2.754,0.946
			c0.129,1.207,0.169,2.424,0.304,3.633c0.194,1.743,0.605,3.93,2.481,4.607c2.1-0.214,1.659-2.954,1.426-4.383
			c-0.187-1.144-0.344-2.275-0.601-3.406c-0.305-1.335-1.101-2.636,0.43-3.093c2.778-0.83,5.525-1.769,8.363-2.383
			c0.541,1.025,0.699,2.21,0.995,3.317c0.343,0.948,1.262,1.39,1.99,1.99c2.417-0.422,4.46-1.659,6.41-3.086
			c1.087-0.797,1.19-1.123,1.955,0.118c0.446,0.724,0.816,1.494,1.306,2.194c0.908,1.294,3.527,2.88,4.424,0.675
			c0.656-1.607-0.453-2.873-1.535-3.892c-0.678-0.638-1.2-1.352-1.284-2.31c0.952-0.381,1.901-0.809,2.739-1.407
			c1.617-1.156,2.732-3.082,0.506-4.291c-1.813-0.985-4.651,2.204-5.721,3.441c-1.235,1.429-4.26,1.07-5.938,2.422
			c-1.492,1.203-1.82-2.601-2.74-3.492c-1.393-1.348-5.167-0.039-6.74,0.434c-4.799,1.437-9.658,3.054-14.607,3.887
			c0.073-1.445-1.361-5.9,0.157-6.809c2.22-1.325,4.58-3.102,7.14-3.804c5.641-2.913,12.645-4.002,18.913-4.605
			c12.374-1.197,26.508,0.43,36.448,8.615c1.55,1.276,2.356,3.18,3.454,4.803c1.351,1.994,2.554,4.108,3.204,6.444
			c-1.054,0.163-1.64-0.538-2.75-0.134c-0.762,0.277-1.676,0.289-2.346,0.787c-1.979,1.466,0.571,3.143,1.953,3.292
			c2.458,0.267,3.731,0.924,5.742,2.412c1.901,1.407,3.677,3.04,4.798,5.151c2.011,3.792,1.896,10.621,0.036,14.474
			c-0.469,0.968-1.018,1.843-1.323,2.87c-0.739,2.475-1.877,4.678-2.785,7.086c-0.843,2.24-2.631,3.543-2.329,6.183
			c2.6,0.785,4.091-2.043,4.975-3.979c1.108,0.516,0.882,2.756,1.262,3.71c0.516,1.297,0.726,2.909,1.048,4.261
			C108.338,75.281,109.697,79.876,105.644,81.227z M53.907,86.866c-0.195,0.088-0.38,0.187-0.562,0.289
			C53.558,87.074,54.026,86.866,53.907,86.866z M52.042,44.207c2.442-1.849,5.087-3.041,7.774-4.43
			c0.904-0.469,2.808-1.07,2.823-2.338c0.004-0.251-0.071-0.481-0.2-0.687c-0.425-0.679-1.434-1.074-2.11-1.027
			c-1.744,0.118-3.342,1.05-4.937,1.678c-2.922,1.148-5.529,2.893-7.526,5.282c-2.043,2.442-2.942,5.082-2.787,8.236
			c0.082,1.704-0.354,5.096,2.194,5.103c1.862-0.826,1.678-4.316,1.713-6.049C49.028,47.816,50.205,45.6,52.042,44.207z
			 M101.008,53.165c-0.818-2.008-2.196-6.103-4.037-7.241c-2.099-1.292-4.316-2.041-6.336-1.505c-1.09,0.29-2.122,0.954-3.047,2.112
			c-1.256,1.574-2.222,3.698-1.797,5.745c0.245,1.176,0.9,1.594,1.569,2.475c0.664,0.877,0.662,1.853,0.907,2.874
			c0.836,3.464,3.536,6.397,7.195,6.684C101.046,64.75,102.633,57.16,101.008,53.165z M70.488,49.282
			c-1.397-1.287-4.657-1.238-6.338-0.938c-0.426,0.077-0.844,0.151-1.255,0.228c-1.729,0.332-3.329,0.752-4.885,1.788
			c-3.577,2.377-5.612,6.527-6.195,10.696c-0.259,1.851-0.21,3.737,0.102,5.58c0.264,1.562,3.809,3.351,5.158,3.806
			c2.356,0.793,5.281,0.905,7.744,0.87c2.778-0.041,5.117-2.577,6.217-4.97c1.217-2.648,1.744-5.616,1.81-8.515
			c0.037-1.688-0.092-3.384-0.412-5.041C72.099,51.057,71.755,50.449,70.488,49.282z M87.051,67.651
			c-1.079-1.649-2.909-3.529-4.825-2.699c-0.279,0.118-0.559,0.298-0.838,0.538c-1.447,1.258-1.425,3.574-1.762,5.308
			c-0.438,2.251-1.018,5.019-0.862,7.318c0.129,1.904,1.683,3.372,3.617,2.259c1.041-0.597,1.38-1.908,2.425-2.503
			c1.665-0.948,2.501,0.775,3.958,1.076c2.445,0.508,2.559-2.348,2.271-4.01C90.57,72.274,88.531,69.916,87.051,67.651z
			 M63.408,74.296c-1.879,0.049-4.208,0.61-6.023-0.063c-1.53-0.567-2.792-1.678-4.375-2.124c-2.085-0.591-2.076,1.027-1.02,2.357
			c2.261,2.846,5.841,2.84,9.092,3.16c1.42,0.141,7.113,0.713,7.087-1.741c-0.001-0.102-0.015-0.196-0.04-0.283
			C67.734,74.199,64.493,74.27,63.408,74.296z"/>
	</g>
</g>
<g>
</g>
<g>
</g>
<g>
</g>
<g>
</g>
<g>
</g>
<g>
</g>
<g>
</g>
<g>
</g>
<g>
</g>
<g>
</g>
<g>
</g>
<g>
</g>
<g>
</g>
<g>
</g>
<g>
</g>
</svg>
