<?xml version="1.0" encoding="UTF-8" standalone="no"?>
<!-- Generator: Adobe Illustrator 19.0.0, SVG Export Plug-In . SVG Version: 6.00 Build 0)  -->

<svg
   xmlns:dc="http://purl.org/dc/elements/1.1/"
   xmlns:cc="http://creativecommons.org/ns#"
   xmlns:rdf="http://www.w3.org/1999/02/22-rdf-syntax-ns#"
   xmlns:svg="http://www.w3.org/2000/svg"
   xmlns="http://www.w3.org/2000/svg"
   xmlns:sodipodi="http://sodipodi.sourceforge.net/DTD/sodipodi-0.dtd"
   xmlns:inkscape="http://www.inkscape.org/namespaces/inkscape"
   version="1.1"
   id="Capa_1"
   x="0px"
   y="0px"
   viewBox="0 0 120.844 159.84399"
   xml:space="preserve"
   inkscape:version="0.91 r13725"
   sodipodi:docname="devLead.svg"
   width="120.844"
   height="159.84399"><metadata
     id="metadata42"><rdf:RDF><cc:Work
         rdf:about=""><dc:format>image/svg+xml</dc:format><dc:type
           rdf:resource="http://purl.org/dc/dcmitype/StillImage" /><dc:title></dc:title></cc:Work></rdf:RDF></metadata><defs
     id="defs40" /><sodipodi:namedview
     pagecolor="#ffffff"
     bordercolor="#666666"
     borderopacity="1"
     objecttolerance="10"
     gridtolerance="10"
     guidetolerance="10"
     inkscape:pageopacity="0"
     inkscape:pageshadow="2"
     inkscape:window-width="1440"
     inkscape:window-height="897"
     id="namedview38"
     showgrid="false"
     inkscape:zoom="11.047446"
     inkscape:cx="61.382277"
     inkscape:cy="9.5420617"
     inkscape:window-x="-8"
     inkscape:window-y="-8"
     inkscape:window-maximized="1"
     inkscape:current-layer="Capa_1" /><g
     id="_x30_202-spooky-skull"
     transform="translate(0,7.00017)"><g
       id="g4"><path
         style="clip-rule:evenodd;fill-rule:evenodd"
         d="m 110.279,61.405 c -0.429,-2.336 -0.323,-4.672 -0.323,-7.039 0.238,-1.551 1.144,-2.758 1.869,-4.102 1.662,-3.074 0.947,-8.022 0.457,-11.371 -0.44,-3.017 -2.609,-5.749 -4.803,-7.838 -0.98,-0.934 -2.316,-1.551 -2.829,-2.893 0.149,-1.635 -0.543,-2.974 -0.877,-4.521 -0.745,-3.472 -3.771,-7.202 -5.926,-9.991 C 95.695,10.867 93.281,8.083 90.121,6.489 83.825,3.311 77.701,1.433 70.735,0.439 62.942,-0.672 53.938,0.474 46.31,2.274 38.905,4.021 31.727,6.681 25.27,10.744 12.507,18.773 7.475,32.59 7.475,47.116 c 0,3.27 0.522,6.517 0.735,9.775 0.223,3.41 0.369,6.856 1.271,10.17 1.826,6.721 4.967,13.736 10.291,18.422 5.329,4.693 11.244,8.566 18.344,9.545 1.828,0.253 1.473,0.832 1.482,2.45 0.034,5.908 1.192,11.822 6.506,15.206 5.921,3.769 12.213,5.853 19.09,7.178 2.985,0.575 6.124,0.895 9.163,0.97 9.423,0.234 18.935,-2.925 26.452,-8.576 2.347,-1.765 5.397,-5.225 6.35,-8.042 0.68,-2.008 0.716,-4.189 0.804,-6.283 0.141,-3.298 -0.275,-6.395 -0.575,-9.628 -0.019,-0.2 -0.103,-0.495 -0.13,-0.771 -0.016,-0.165 -0.013,-0.322 0.037,-0.448 0.547,-1.37 2.841,-2.648 3.822,-3.747 1.498,-1.682 2.317,-3.527 2.248,-5.81 -0.162,-5.385 -2.117,-10.843 -3.086,-16.122 z m -8.846,42.809 c -1.598,2.946 -4.261,5.023 -6.733,7.196 -0.554,-0.079 -1.729,0.559 -2.362,0.705 -1.116,0.255 -2.229,0.53 -3.341,0.805 -1.956,0.481 -3.911,0.966 -5.885,1.37 -4.345,0.883 -8.368,1.003 -12.748,0.758 -2.547,-0.141 -4.96,-0.72 -7.503,-0.987 -1.729,-0.316 -3.158,-1.366 -4.975,-1.325 -1.947,-1.488 -3.79,-3.103 -5.667,-4.674 -1.075,-0.901 -2.163,-1.786 -3.287,-2.624 -0.163,-0.74 -0.375,-1.466 -0.614,-2.183 -0.624,-1.886 -1.398,-3.72 -1.788,-5.675 -0.227,-1.146 -0.948,-4.446 0.064,-5.312 0.839,-0.72 1.795,-1.584 2.749,-2.171 1.414,-0.868 2.52,-2.111 4.002,-2.942 -0.183,0.07 -0.178,0.046 0.562,-0.289 1.669,0 1.205,6.799 1.358,8.299 0.143,1.39 -0.068,2.56 0.016,3.908 0.047,0.742 0.336,1.513 1.037,1.869 1.828,0.934 3.035,-0.915 3.212,-2.293 0.129,-1.021 5.363,0.728 6.316,0.822 -0.298,1.476 -1.207,5.579 1.327,5.636 2.398,-0.2 2.566,-2.921 3.115,-4.723 0.341,-1.121 5.197,0.194 6.503,0.081 0.085,1.965 -1.007,6.943 1.991,7.296 2.455,-0.251 2.85,-2.23 2.78,-4.346 -0.042,-1.254 -0.701,-2.846 0.705,-3.066 1.391,-0.216 2.766,-0.52 4.18,-0.559 1.585,-0.041 0.919,1.69 1.278,3.007 0.271,0.989 0.806,1.916 1.742,2.403 2.602,1.36 2.971,-2.236 2.593,-3.883 -0.318,-1.384 -1.039,-2.95 0.537,-3.205 1.059,-0.173 1.945,-1.694 2.365,-0.065 0.537,2.088 3.355,3.51 4.382,0.758 0.288,-1.219 -1.401,-3.249 -0.832,-4.148 0.465,-0.73 1.525,-0.756 1.495,-1.821 0.876,-0.514 1.602,-1.186 2.653,-1.327 0.347,4.316 0.928,8.732 -1.227,12.705 z m 4.211,-22.987 c -0.272,-1.865 -0.41,-4.719 -2.653,-5.306 -3.436,-0.222 -1.502,5.832 -1.161,7.465 0.291,1.394 1.322,4.081 -0.66,4.511 -1.276,0.277 -2.211,1.743 -3.486,1.623 0.021,-1.896 -0.12,-4.324 -2.653,-3.979 -1.157,0.659 -0.099,3.576 -0.349,4.813 -0.333,1.655 -0.924,3.015 -2.609,3.647 -1.677,0.628 -1.325,-0.418 -1.619,-1.694 -0.239,-1.044 -0.677,-2.01 -0.773,-3.074 -0.17,-1.888 -1.994,-2.948 -2.915,-0.875 -0.533,1.207 -0.027,2.917 -0.025,4.146 0,1.262 0.568,2.876 -0.833,3.202 -1.229,0.287 -2.49,0.424 -3.751,0.449 -1.627,0.033 -1.083,-0.952 -1.072,-2.306 0.007,-1.015 0.021,-2.032 -0.05,-3.048 -0.064,-0.934 -0.17,-3.198 -0.923,-3.902 -0.843,-0.787 -2.016,0.243 -2.436,1.105 -0.516,1.062 -0.532,2.348 -0.592,3.502 -0.081,1.541 0.369,5.096 -1.605,4.909 -1.56,-0.149 -3.096,-0.469 -4.658,-0.595 0.006,-1.062 0.05,-2.124 0.023,-3.188 -0.042,-1.778 -0.256,-4.248 -2.345,-4.772 -3.002,0.762 -2.356,5.361 -2.321,7.63 -1.557,-0.314 -3.136,-0.563 -4.659,-1.027 -1.687,-0.516 -1.62,-0.711 -1.719,-2.389 -0.137,-2.316 -0.386,-4.748 -1.373,-6.878 -2.3,-4.974 -6.108,-2.442 -9.495,-0.318 -1.166,1.052 -2.447,1.967 -3.63,3.003 -1.279,1.121 -1.14,1.345 -2.743,0.76 -3.245,-1.188 -6.795,0.077 -9.508,-2.807 -3.439,-3.663 -8.142,-6.371 -10.378,-11.049 -0.995,-2.081 -1.909,-4.197 -2.658,-6.381 -2.696,-7.856 -3.347,-16.141 -3.066,-24.397 0.228,-6.715 1.678,-14.58 5.208,-20.397 0.865,-1.427 2.539,-3.04 2.895,-4.733 0.685,0.801 0.356,2.308 0.306,3.249 -0.07,1.331 0.271,2.471 1.015,3.59 1.488,2.24 4.642,0.479 6.739,-0.106 1.634,-0.455 2.553,-0.944 2.754,0.946 0.129,1.207 0.169,2.424 0.304,3.633 0.194,1.743 0.605,3.93 2.481,4.607 2.1,-0.214 1.659,-2.954 1.426,-4.383 -0.187,-1.144 -0.344,-2.275 -0.601,-3.406 -0.305,-1.335 -1.101,-2.636 0.43,-3.093 2.778,-0.83 5.525,-1.769 8.363,-2.383 0.541,1.025 0.699,2.21 0.995,3.317 0.343,0.948 1.262,1.39 1.99,1.99 2.417,-0.422 4.46,-1.659 6.41,-3.086 1.087,-0.797 1.19,-1.123 1.955,0.118 0.446,0.724 0.816,1.494 1.306,2.194 0.908,1.294 3.527,2.88 4.424,0.675 0.656,-1.607 -0.453,-2.873 -1.535,-3.892 -0.678,-0.638 -1.2,-1.352 -1.284,-2.31 0.952,-0.381 1.901,-0.809 2.739,-1.407 1.617,-1.156 2.732,-3.082 0.506,-4.291 -1.813,-0.985 -4.651,2.204 -5.721,3.441 -1.235,1.429 -4.26,1.07 -5.938,2.422 -1.492,1.203 -1.82,-2.601 -2.74,-3.492 -1.393,-1.348 -5.167,-0.039 -6.74,0.434 -4.799,1.437 -9.658,3.054 -14.607,3.887 0.073,-1.445 -1.361,-5.9 0.157,-6.809 2.22,-1.325 4.58,-3.102 7.14,-3.804 5.641,-2.913 12.645,-4.002 18.913,-4.605 12.374,-1.197 26.508,0.43 36.448,8.615 1.55,1.276 2.356,3.18 3.454,4.803 1.351,1.994 2.554,4.108 3.204,6.444 -1.054,0.163 -1.64,-0.538 -2.75,-0.134 -0.762,0.277 -1.676,0.289 -2.346,0.787 -1.979,1.466 0.571,3.143 1.953,3.292 2.458,0.267 3.731,0.924 5.742,2.412 1.901,1.407 3.677,3.04 4.798,5.151 2.011,3.792 1.896,10.621 0.036,14.474 -0.469,0.968 -1.018,1.843 -1.323,2.87 -0.739,2.475 -1.877,4.678 -2.785,7.086 -0.843,2.24 -2.631,3.543 -2.329,6.183 2.6,0.785 4.091,-2.043 4.975,-3.979 1.108,0.516 0.882,2.756 1.262,3.71 0.516,1.297 0.726,2.909 1.048,4.261 0.712,2.993 2.071,7.588 -1.982,8.939 z m -51.737,5.639 c -0.195,0.088 -0.38,0.187 -0.562,0.289 0.213,-0.081 0.681,-0.289 0.562,-0.289 z M 52.042,44.207 c 2.442,-1.849 5.087,-3.041 7.774,-4.43 0.904,-0.469 2.808,-1.07 2.823,-2.338 0.004,-0.251 -0.071,-0.481 -0.2,-0.687 -0.425,-0.679 -1.434,-1.074 -2.11,-1.027 -1.744,0.118 -3.342,1.05 -4.937,1.678 -2.922,1.148 -5.529,2.893 -7.526,5.282 -2.043,2.442 -2.942,5.082 -2.787,8.236 0.082,1.704 -0.354,5.096 2.194,5.103 1.862,-0.826 1.678,-4.316 1.713,-6.049 0.042,-2.159 1.219,-4.375 3.056,-5.768 z m 48.966,8.958 c -0.818,-2.008 -2.196,-6.103 -4.037,-7.241 -2.099,-1.292 -4.316,-2.041 -6.336,-1.505 -1.09,0.29 -2.122,0.954 -3.047,2.112 -1.256,1.574 -2.222,3.698 -1.797,5.745 0.245,1.176 0.9,1.594 1.569,2.475 0.664,0.877 0.662,1.853 0.907,2.874 0.836,3.464 3.536,6.397 7.195,6.684 5.584,0.441 7.171,-7.149 5.546,-11.144 z m -30.52,-3.883 c -1.397,-1.287 -4.657,-1.238 -6.338,-0.938 -0.426,0.077 -0.844,0.151 -1.255,0.228 -1.729,0.332 -3.329,0.752 -4.885,1.788 -3.577,2.377 -5.612,6.527 -6.195,10.696 -0.259,1.851 -0.21,3.737 0.102,5.58 0.264,1.562 3.809,3.351 5.158,3.806 2.356,0.793 5.281,0.905 7.744,0.87 2.778,-0.041 5.117,-2.577 6.217,-4.97 1.217,-2.648 1.744,-5.616 1.81,-8.515 0.037,-1.688 -0.092,-3.384 -0.412,-5.041 -0.335,-1.729 -0.679,-2.337 -1.946,-3.504 z m 16.563,18.369 c -1.079,-1.649 -2.909,-3.529 -4.825,-2.699 -0.279,0.118 -0.559,0.298 -0.838,0.538 -1.447,1.258 -1.425,3.574 -1.762,5.308 -0.438,2.251 -1.018,5.019 -0.862,7.318 0.129,1.904 1.683,3.372 3.617,2.259 1.041,-0.597 1.38,-1.908 2.425,-2.503 1.665,-0.948 2.501,0.775 3.958,1.076 2.445,0.508 2.559,-2.348 2.271,-4.01 -0.465,-2.664 -2.504,-5.022 -3.984,-7.287 z m -23.643,6.645 c -1.879,0.049 -4.208,0.61 -6.023,-0.063 -1.53,-0.567 -2.792,-1.678 -4.375,-2.124 -2.085,-0.591 -2.076,1.027 -1.02,2.357 2.261,2.846 5.841,2.84 9.092,3.16 1.42,0.141 7.113,0.713 7.087,-1.741 -10e-4,-0.102 -0.015,-0.196 -0.04,-0.283 -0.395,-1.403 -3.636,-1.332 -4.721,-1.306 z"
         id="path6"
         inkscape:connector-curvature="0" /></g></g><g
     id="g8"
     transform="translate(0,39.00017)" /><g
     id="g10"
     transform="translate(0,39.00017)" /><g
     id="g12"
     transform="translate(0,39.00017)" /><g
     id="g14"
     transform="translate(0,39.00017)" /><g
     id="g16"
     transform="translate(0,39.00017)" /><g
     id="g18"
     transform="translate(0,39.00017)" /><g
     id="g20"
     transform="translate(0,39.00017)" /><g
     id="g22"
     transform="translate(0,39.00017)" /><g
     id="g24"
     transform="translate(0,39.00017)" /><g
     id="g26"
     transform="translate(0,39.00017)" /><g
     id="g28"
     transform="translate(0,39.00017)" /><g
     id="g30"
     transform="translate(0,39.00017)" /><g
     id="g32"
     transform="translate(0,39.00017)" /><g
     id="g34"
     transform="translate(0,39.00017)" /><g
     id="g36"
     transform="translate(0,39.00017)" /><path
     style="fill:#000000"
     id="path3398"
     d="m 41.800663,116.58745 c -0.554512,2.50671 -1.593073,4.87428 -2.701298,7.17847 -1.098652,1.94585 -1.710733,4.13868 -2.9021,6.02972 -0.34675,0.4296 -0.290933,0.48367 -0.233039,-0.006 -0.0033,0.12918 -1.830155,0.0831 -1.826899,-0.046 l 0,0 c 0.05426,-0.5972 -0.01836,-0.34573 0.156293,-0.76953 0.827556,-2.02999 1.489201,-4.12909 2.478893,-6.093 1.014052,-2.28982 2.041519,-4.57437 3.178867,-6.80561 0.03623,-0.13076 1.885511,0.38158 1.849283,0.51234 z"
     inkscape:connector-curvature="0" /><path
     style="fill:#000000"
     id="path3449"
     d="m 53.611271,125.83623 c -0.298158,1.48547 -0.628956,2.97265 -1.250906,4.35924 -0.283179,0.68932 -0.433264,1.42229 -0.629995,2.13951 -0.115136,1.18598 -0.366064,2.34983 -0.557851,3.52491 -0.01066,0.0844 -0.224219,1.62345 0.0023,1.50047 0.06671,0.11766 -1.59727,1.06103 -1.663976,0.94337 l 0,0 c -0.0875,-0.15209 -0.191355,-0.29588 -0.262501,-0.45628 -0.315585,-0.71146 -0.214499,-1.5057 -0.140525,-2.25232 0.180005,-1.25289 0.424494,-2.49782 0.72359,-3.72776 0.06224,-0.19695 0.142974,-0.38849 0.192264,-0.58908 0.135253,-0.55041 0.141674,-1.13456 0.390305,-1.65798 0.362656,-1.41191 0.702121,-2.84199 1.281165,-4.18405 0.02828,-0.13549 1.944442,0.26448 1.91616,0.39997 z"
     inkscape:connector-curvature="0" /><path
     style="fill:#000000"
     id="path3451"
     d="m 33.801991,128.9521 c 1.157667,2.23843 2.228568,4.51819 3.449439,6.72385 1.061051,1.62811 2.260522,3.22027 3.766923,4.46959 0.67354,0.5586 1.157795,0.79109 1.901271,1.20973 1.312905,0.63441 2.676419,1.20786 4.130015,1.41255 0.905952,0.12758 1.153313,0.0963 2.047424,0.094 0.709045,0.0245 1.397722,-0.23331 2.096308,-0.27932 0.762465,-0.0502 1.07217,-0.016 1.746031,0.0269 -0.04799,-0.0312 -0.18596,-0.0548 -0.143971,-0.0937 0.118667,-0.11005 0.298462,-0.12529 0.447692,-0.18793 0.163499,-0.12053 0.349425,-0.21545 0.490497,-0.3616 0.665498,-0.68944 1.023084,-1.69965 1.405854,-2.55156 0.462156,-1.15747 0.969553,-2.3528 1.11427,-3.60491 0.03832,-0.33152 0.07413,-0.28691 -0.0992,-0.35203 -1.153673,-1.03224 -2.071636,-2.34343 -2.891377,-3.64922 -0.01531,-0.0288 -0.825913,-1.55534 -0.89258,-1.67666 -0.06384,-0.11617 -0.333096,-0.3507 -0.200751,-0.34327 0.160428,0.009 0.220568,0.23371 0.330852,0.35057 -0.128324,-0.0407 0.446756,-1.85545 0.57508,-1.81478 l 0,0 c 0.273255,0.12765 0.571382,0.21187 0.819766,0.38295 0.69542,0.47899 0.924298,1.43796 1.388479,2.09034 0.800599,1.32754 1.687046,2.59978 2.656999,3.80983 0.108083,0.22443 0.249182,0.43578 0.324248,0.6733 0.476401,1.50742 -0.412677,3.5898 -0.92316,4.97911 -0.715951,1.48888 -1.422287,2.96315 -2.926383,3.80395 -0.245708,0.13736 -0.498955,0.27591 -0.773108,0.33978 -0.436527,0.10169 -0.890717,0.10105 -1.336076,0.15157 -0.172153,-0.0153 -0.349027,-0.003 -0.51646,-0.0459 -0.0569,-0.0146 0.229515,-0.0476 0.170997,-0.0425 -0.597655,0.0518 -0.404653,0.0849 -1.067074,0.27301 -1.056139,0.29999 -1.02647,0.21644 -2.379219,0.33369 -1.051801,-0.0164 -1.405075,0.0226 -2.461578,-0.18211 -1.607794,-0.31146 -3.100424,-1.02802 -4.574872,-1.71109 -1.052725,-0.55281 -1.429224,-0.68651 -2.386349,-1.47817 -1.674846,-1.38532 -2.960964,-3.18191 -4.143052,-4.98311 -0.270964,-0.48784 -0.559225,-0.96647 -0.812894,-1.46353 -0.948619,-1.8588 -1.701936,-3.83381 -2.219416,-5.85424 -0.03175,-0.13332 1.853632,-0.58228 1.885378,-0.44896 z"
     inkscape:connector-curvature="0" /><path
     style="fill:#000000"
     id="path3453"
     d="m 5.0952084,151.24286 c 0.06366,-3.50594 1.3395882,-6.80937 2.5211377,-10.00312 1.0609851,-2.68484 2.4864359,-5.16843 4.3849869,-7.22116 0.823311,-0.89017 1.812496,-1.71135 2.714067,-2.49815 1.773282,-1.50438 3.752985,-2.62997 5.947316,-3.13517 1.072712,-0.24697 1.822315,-0.27248 2.904621,-0.36361 2.03859,-0.22855 4.166494,0.0315 6.160275,-0.57987 0.06039,-0.0201 0.120769,-0.0402 0.181154,-0.0603 0.104803,-0.11275 1.542171,1.53187 1.437366,1.64465 l 0,0 c -0.123363,0.1247 -0.246725,0.24941 -0.370089,0.37411 -0.568982,0.37613 -0.751601,0.54219 -1.438043,0.76714 -1.683569,0.55171 -3.472976,0.42293 -5.2033,0.52396 -1.290532,0.0862 -2.583255,0.16979 -3.832756,0.57926 -1.425325,0.46708 -2.661915,1.34502 -3.856054,2.30369 -1.266951,1.07943 -2.564506,2.16281 -3.607773,3.52119 -1.18198,1.53898 -1.924572,3.39456 -2.690684,5.20672 -1.7300274,4.37209 -0.0057,-0.026 -1.6304726,4.23609 -0.5896073,1.54663 -1.1933212,3.07725 -1.5827871,4.70456 0,0.15998 -2.0389649,0.15998 -2.0389649,0 z"
     inkscape:connector-curvature="0" /><path
     style="fill:#000000"
     id="path3455"
     d="m 60.247147,130.88831 c 3.422665,0.40508 6.840834,1.32644 9.949317,3.06605 0.735639,0.41168 1.430806,0.91336 2.146209,1.37002 1.533645,1.14596 3.136864,2.21994 4.506157,3.63249 0.579842,0.59816 1.140597,1.26225 1.467896,2.09453 0.162276,0.41266 0.228683,0.86701 0.343024,1.3005 0.03557,0.49629 0.09685,0.99101 0.1067,1.48883 0.009,0.45314 -0.09961,2.54625 -0.118661,2.98674 -0.06373,1.47315 -0.146422,2.9443 -0.202091,4.4178 -0.01147,1.62787 0.203999,3.25039 0.163399,4.87767 -0.07493,0.91445 0.04339,0.24324 -1.74972,-0.38581 0.04353,-0.14869 1.866613,0.56132 1.823087,0.71003 l 0,0 c -1.990655,0.0121 -1.746417,0.72394 -1.988378,-0.1191 -0.373416,-1.65802 -0.499526,-3.38574 -0.562443,-5.09129 -0.013,-0.46062 -0.04192,-0.92101 -0.039,-1.38186 0.01471,-2.32004 0.359064,-4.61684 0.440904,-6.93205 -0.03959,-0.20239 -0.0332,-0.42467 -0.118774,-0.60716 -0.223426,-0.47647 -0.944169,-1.07749 -1.265179,-1.32882 -1.456491,-1.14029 -3.06715,-1.99866 -4.564537,-3.05968 -0.665573,-0.39009 -1.318303,-0.81083 -1.996719,-1.17029 -2.894144,-1.53347 -5.970267,-2.48911 -8.983119,-3.64292 -0.13644,-0.0523 0.505491,-2.27804 0.641931,-2.22568 z"
     inkscape:connector-curvature="0" /><path
     style="fill:#f4eed7"
     d="m 73.060569,103.16852 -2.260805,-0.29783 -0.0188,-2.34893 c -0.02249,-2.809916 -0.360494,-4.224996 -1.195494,-5.005002 -0.757522,-0.707632 -1.463948,-0.680445 -2.230221,0.08583 -0.865789,0.865789 -1.176262,2.102404 -1.176262,4.685034 0,2.52092 0.234468,2.37432 -2.724071,1.70314 -2.255562,-0.5117 -3.156407,-0.85988 -3.397916,-1.31333 -0.0973,-0.18268 -0.2707,-1.373115 -0.385342,-2.645407 -0.244838,-2.7172 -0.682692,-4.568477 -1.431218,-6.051299 -2.008585,-3.978985 -5.364072,-3.388388 -11.88504,2.091877 -1.307415,1.098763 -2.333837,1.828035 -2.577761,1.831504 -0.222924,0.0032 -0.996858,-0.152788 -1.719854,-0.346574 C 41.334788,95.363743 39.84711,95.118767 38.751834,95.013137 35.314973,94.681681 34.59028,94.359976 32.254513,92.128836 31.347366,91.262326 29.575294,89.64134 28.316574,88.526644 24.208504,84.888629 23.124564,83.335881 20.959201,77.987175 18.905352,72.913923 17.701855,67.665872 17.120804,61.2492 c -0.249848,-2.759121 -0.251712,-11.192506 -0.003,-13.676294 0.786695,-7.857155 2.853506,-14.066844 6.236478,-18.737362 0.576971,-0.796564 1.179305,-1.733433 1.33852,-2.081929 0.38561,-0.844041 0.385363,-0.843811 0.578846,-0.53787 0.09263,0.146473 0.169669,1.179759 0.171194,2.296192 0.0022,1.597933 0.08172,2.24088 0.373768,3.021454 0.622204,1.662989 1.959912,2.507997 3.461895,2.186826 0.331388,-0.07086 1.604435,-0.445334 2.828993,-0.83216 1.224558,-0.386828 2.471083,-0.703323 2.770057,-0.703323 0.736623,0 0.995255,0.666791 1.158625,2.987116 0.155317,2.205947 0.517824,4.229225 0.884941,4.939149 0.31833,0.615584 1.46228,1.668713 1.812622,1.668713 0.484874,0 1.190544,-0.759962 1.388579,-1.495412 0.229856,-0.853613 -0.145615,-4.054492 -0.757062,-6.453929 -0.37281,-1.462981 -0.421335,-2.14505 -0.179739,-2.526394 0.160913,-0.253994 4.424554,-1.634773 7.406887,-2.398721 1.976167,-0.50621 1.829735,-0.609442 2.398051,1.690583 0.367531,1.487438 0.453123,1.646188 1.29629,2.404267 0.977727,0.879061 0.969084,0.87804 2.676537,0.315887 1.212753,-0.399283 2.073562,-0.862176 4.027456,-2.165732 0.970469,-0.647455 1.87592,-1.134432 2.012112,-1.08217 0.136193,0.05226 0.618429,0.737889 1.071636,1.523616 1.225739,2.125068 2.455701,3.127549 3.837247,3.127549 1.276123,0 1.96385,-1.725205 1.248477,-3.131884 -0.162056,-0.31866 -0.731852,-1.041273 -1.266215,-1.605809 -0.914512,-0.966149 -1.335735,-1.668422 -1.335735,-2.226965 0,-0.133488 0.519219,-0.485678 1.15382,-0.782644 2.782344,-1.302016 4.01628,-3.474611 2.634011,-4.637713 -0.776481,-0.653366 -1.314595,-0.744595 -2.260712,-0.38327 -0.937147,0.3579 -2.62679,1.714859 -3.572777,2.869311 -0.789975,0.964059 -1.324094,1.2322 -3.665455,1.84014 -0.991064,0.257332 -2.105689,0.668707 -2.476944,0.914165 -0.371255,0.245459 -0.75231,0.446289 -0.846787,0.446289 -0.315005,0 -0.891843,-0.908561 -1.368043,-2.154763 -0.603443,-1.579189 -1.084365,-2.035324 -2.265595,-2.148826 -1.274711,-0.122483 -2.472105,0.147634 -7.96465,1.796727 -4.285841,1.286791 -9.460084,2.642176 -11.236803,2.943465 l -0.640998,0.108698 -0.31018,-2.128283 c -0.594171,-4.076881 -0.588792,-4.090778 2.275744,-5.879126 2.224725,-1.388911 3.20859,-1.897446 5.381182,-2.781406 0.647209,-0.263328 1.828477,-0.750803 2.625041,-1.083277 3.253236,-1.357853 8.004364,-2.449288 13.849355,-3.181489 3.745738,-0.469228 11.948023,-0.660407 15.132645,-0.352713 4.934465,0.476762 9.58892,1.470207 13.199695,2.817339 4.175474,1.557813 8.711193,4.199372 10.839577,6.312864 1.77193,1.759531 5.836576,8.595208 6.204357,10.43411 0.123777,0.618891 0.05427,0.640014 -1.174035,0.356763 -1.144166,-0.263847 -3.469581,0.376051 -4.103243,1.129116 -0.52438,0.62319 -0.538503,0.721618 -0.198017,1.380047 0.365211,0.706237 1.605182,1.331169 3.178072,1.601711 3.519919,0.60544 8.253899,4.288153 9.912909,7.711564 1.03233,2.13024 1.23011,3.28574 1.2161,7.104923 -0.0117,3.197079 -0.0469,3.551853 -0.49873,5.02955 -0.26736,0.874412 -0.80014,2.218614 -1.18396,2.987116 -0.38382,0.768501 -0.84295,1.845342 -1.0203,2.39298 -0.62601,1.933053 -3.01431,7.528643 -3.72817,8.734826 -0.87899,1.485178 -1.25031,2.494267 -1.25031,3.39781 0,0.561355 0.0739,0.700306 0.41836,0.786764 1.24834,0.313312 2.79138,-0.84749 3.89853,-2.932783 0.57871,-1.089994 0.62057,-1.127154 0.94204,-0.836229 0.18503,0.167449 0.4255,0.763684 0.53438,1.324967 0.10888,0.561282 0.35148,1.590782 0.53911,2.287776 0.18763,0.696993 0.63966,2.611463 1.0045,4.254377 1.1823,5.32394 0.84463,7.374904 -1.40407,8.528074 l -0.67502,0.346158 -0.0821,-0.409036 c -0.0451,-0.22497 -0.17679,-0.936566 -0.29257,-1.581325 -0.37311,-2.0778 -1.26263,-3.263125 -2.4488,-3.263125 -0.85206,0 -1.14352,0.153342 -1.46198,0.769184 -0.45873,0.887079 -0.33236,2.875716 0.38252,6.019771 0.35006,1.539544 0.63647,3.074859 0.63647,3.411812 0,0.698125 -0.53921,1.487871 -1.13621,1.664118 -0.22143,0.06537 -0.93214,0.42885 -1.579349,0.807727 -1.911615,1.119062 -1.919175,1.118058 -2.048998,-0.272191 -0.123059,-1.317804 -0.53941,-2.362581 -1.050513,-2.636114 -0.523044,-0.279925 -1.617362,-0.263543 -1.805581,0.02703 -0.09129,0.140929 -0.145154,1.356037 -0.119706,2.700239 0.04487,2.369923 0.03051,2.476101 -0.473714,3.502992 -0.597804,1.217473 -1.767676,2.109163 -2.767152,2.109163 -0.660459,0 -0.543646,0.2692 -1.335487,-3.077633 -0.656612,-2.775258 -0.782882,-3.116954 -1.290588,-3.492422 -0.638303,-0.472047 -1.319174,-0.295726 -1.795242,0.464906 -0.342881,0.547828 -0.358168,0.777255 -0.249985,3.751665 0.09402,2.584924 0.06805,3.230614 -0.14105,3.507474 -0.485258,0.64249 -4.826211,1.14555 -5.351583,0.62018 -0.148704,-0.14871 -0.218376,-1.0483 -0.220831,-2.85134 -0.006,-4.395219 -0.434873,-6.187764 -1.510525,-6.313253 -1.63057,-0.190227 -2.447508,2.037084 -2.463803,6.717353 -0.0069,1.96822 -0.564232,3.09418 -1.486563,3.00301 -0.131009,-0.0129 -1.255559,-0.15757 -2.499001,-0.32137 z m 9.3676,-15.876199 c 0.22463,-0.144676 0.71343,-0.654224 1.086224,-1.132327 1.375538,-1.764114 2.19236,-1.965998 3.843607,-0.949975 1.615834,0.994232 2.783257,0.951217 3.324491,-0.122495 0.666556,-1.322328 0.478585,-3.34717 -0.502508,-5.413078 -0.742902,-1.564336 -3.506929,-5.633242 -4.504017,-6.63033 -1.247972,-1.247972 -2.515405,-1.520428 -3.776286,-0.811771 -1.299712,0.730478 -1.533683,1.359597 -2.409531,6.478979 -1.012064,5.915565 -0.845815,7.992405 0.702314,8.773565 0.62549,0.315611 1.573463,0.23396 2.235706,-0.192568 z M 66.61685,84.360816 c 1.135547,-0.393911 1.705945,-1.097676 1.412198,-1.742384 -0.11233,-0.246537 -0.428916,-0.595124 -0.703524,-0.774639 -0.447388,-0.292462 -0.970454,-0.326457 -5.03203,-0.327028 l -4.532742,-7.24e-4 -2.184381,-1.143602 c -2.25238,-1.179201 -3.480026,-1.525467 -3.969155,-1.119525 -0.845328,0.701559 0.627425,2.966035 2.575341,3.959787 1.139016,0.581083 2.600579,0.931126 4.963464,1.188747 3.27654,0.357238 6.372265,0.340365 7.470829,-0.04072 l 0,8.5e-5 z m 0.322838,-6.680789 c 2.623729,-1.165721 4.632171,-4.523431 5.501453,-9.197311 0.589745,-3.17089 0.280696,-8.784928 -0.57466,-10.439005 -1.425008,-2.755661 -4.39914,-3.441016 -9.717502,-2.239288 -2.38227,0.538293 -4.042978,1.374216 -5.643188,2.840519 -2.784057,2.551082 -4.503876,6.509008 -4.746753,10.923998 -0.06233,1.133044 -0.02529,2.537643 0.08592,3.258672 0.185903,1.205208 0.243401,1.312241 1.174244,2.185875 1.168654,1.096831 3.510436,2.300242 5.284658,2.715715 1.463982,0.342825 5.153964,0.619048 6.607862,0.49465 0.547638,-0.04686 1.46022,-0.291578 2.027962,-0.543825 z m 30.488545,-6.65871 c 2.453114,-0.728496 4.053027,-3.68246 4.053027,-7.483199 0,-1.412549 -0.0934,-1.980697 -0.55195,-3.356416 -0.77885,-2.336835 -2.354629,-5.539001 -3.169664,-6.441148 -1.813692,-2.007539 -5.757119,-2.968266 -7.955289,-1.938124 -2.307206,1.08124 -4.271148,4.482794 -4.015931,6.955609 0.100194,0.970773 0.38889,1.527407 1.496049,2.884526 0.314484,0.385483 0.622845,1.181167 0.912072,2.353485 0.560292,2.271006 1.135381,3.434392 2.341886,4.737562 1.942224,2.097835 4.579927,2.973663 6.8898,2.287705 z M 47.948048,62.428553 c 0.596426,-0.708812 0.84283,-1.83 1.020013,-4.641259 0.30795,-4.886031 1.694129,-6.408564 9.325176,-10.242463 1.798114,-0.903387 3.493333,-1.852148 3.767152,-2.108355 1.368334,-1.280329 -0.27885,-2.965585 -2.494086,-2.551734 -1.076093,0.201036 -5.66739,2.140161 -7.080757,2.990544 -3.341822,2.010679 -5.718113,4.708071 -6.811748,7.732202 -0.361229,0.998872 -0.403777,1.459425 -0.404175,4.375064 -5.43e-4,3.569918 0.141182,4.253866 0.974993,4.707035 0.728925,0.396162 1.212834,0.322007 1.703432,-0.261034 z"
     id="path3461"
     inkscape:connector-curvature="0" /><path
     style="fill:#f4eed7"
     d="m 69.528178,122.03609 c -4.479797,-0.57688 -7.135873,-1.05951 -8.822222,-1.60307 -1.068543,-0.34443 -2.142715,-0.62622 -2.387049,-0.62622 -0.292253,0 -1.114093,-0.55295 -2.402092,-1.61618 -1.076815,-0.8889 -3.08297,-2.54306 -4.458121,-3.67591 l -2.500275,-2.05974 -1.076881,-3.24877 c -1.248165,-3.76549 -1.797693,-6.21981 -1.797693,-8.02891 0,-1.209896 0.03596,-1.323359 0.626599,-1.977127 0.34463,-0.381463 1.13055,-1.053799 1.746489,-1.494079 0.615939,-0.44028 1.698539,-1.25291 2.405776,-1.805844 1.896142,-1.482446 2.681676,-1.981781 3.117657,-1.981781 0.952096,0 1.324025,2.426428 1.331993,8.689791 0.0058,4.5313 0.120035,4.99045 1.341226,5.38915 0.610161,0.19921 0.789815,0.18724 1.357779,-0.0905 0.62311,-0.30472 1.264879,-1.23892 1.5192,-2.21144 0.07931,-0.30327 0.242658,-0.37163 0.888082,-0.37163 0.67996,0 5.167578,0.97623 5.356619,1.16527 0.03665,0.0366 -0.02977,0.72591 -0.147592,1.53169 -0.379425,2.59491 0.145961,4.00227 1.493532,4.00074 1.362436,-0.002 2.114751,-0.92941 2.788355,-3.43903 0.173716,-0.64721 0.39298,-1.27857 0.487253,-1.40304 0.229823,-0.30342 2.099325,-0.28316 4.381447,0.0475 0.995705,0.14427 1.87834,0.26388 1.961411,0.26582 0.08307,0.002 0.09407,0.88238 0.02445,1.95655 -0.266525,4.11224 0.857118,5.92973 3.06279,4.95406 0.606953,-0.26849 0.916907,-0.55749 1.22681,-1.14391 0.375868,-0.71123 0.411594,-1.00021 0.381799,-3.08822 -0.02534,-1.77593 0.02565,-2.36208 0.222636,-2.55906 0.293378,-0.29338 1.919162,-0.61753 3.900163,-0.77762 1.724157,-0.13934 1.908308,0.0117 2.073686,1.70103 0.234262,2.39299 1.419063,3.94182 2.91811,3.8147 0.479225,-0.0406 0.771814,-0.19807 1.041037,-0.56016 0.519025,-0.69807 0.606111,-2.55353 0.204561,-4.35842 -0.2861,-1.28596 -0.287192,-1.42334 -0.01463,-1.83934 0.162023,-0.24727 0.393367,-0.44958 0.514106,-0.44958 0.12074,0 0.645891,-0.21572 1.167003,-0.47938 1.071365,-0.54206 1.38963,-0.4431 1.595942,0.49623 0.26359,1.20012 1.758155,2.29443 2.816238,2.06204 0.656655,-0.14423 1.434438,-1.05422 1.434438,-1.67827 0,-0.26223 -0.217592,-1.09108 -0.483538,-1.8419 -0.561297,-1.58464 -0.496824,-2.18868 0.282768,-2.6492 0.286721,-0.16937 0.647954,-0.57352 0.802738,-0.8981 0.207966,-0.436115 0.592356,-0.743226 1.472626,-1.176585 0.65517,-0.322536 1.22219,-0.554088 1.26005,-0.514562 0.0379,0.03953 0.16171,1.375336 0.27523,2.968467 0.40545,5.69031 -0.36956,8.74768 -3.067654,12.1016 -0.607127,0.7547 -1.957229,2.12879 -3.000225,3.05353 -2.200919,1.95137 -2.41038,2.04216 -7.680084,3.32908 -7.877072,1.92366 -10.227589,2.25846 -15.5681,2.21744 -1.942235,-0.0149 -3.775738,-0.0586 -4.074449,-0.0971 z"
     id="path3463"
     inkscape:connector-curvature="0" /><path
     style="fill:#f4eed7"
     d="m 47.415909,142.83628 c -1.872131,-0.19177 -4.842893,-1.42564 -6.348181,-2.63665 -0.634937,-0.5108 -1.764157,-1.69214 -2.396222,-2.5068 -1.210667,-1.56043 -1.759552,-2.50518 -3.633303,-6.25376 -0.444182,-0.88862 -0.807652,-1.62309 -0.807711,-1.63216 -5.9e-5,-0.009 0.388779,-0.008 0.864086,0.003 0.73396,0.0165 0.864193,0.0346 0.864193,0.11985 0,0.18954 0.182888,-0.0399 0.542347,-0.68033 0.358745,-0.63917 0.808032,-1.60063 1.422152,-3.04334 0.194807,-0.45765 0.679652,-1.49455 1.077435,-2.30423 0.89412,-1.81997 1.580463,-3.42307 2.047186,-4.78164 0.390278,-1.13605 0.755022,-2.46365 0.700915,-2.5512 -0.04241,-0.0686 -1.201137,-0.44393 -1.370584,-0.44393 -0.165605,0 -0.223865,-0.11018 -0.147063,-0.27813 0.545279,-1.19239 0.926252,-1.96238 0.969708,-1.9599 0.02114,0.001 0.139239,0.22429 0.262451,0.49574 0.7272,1.60209 2.014002,3.25669 3.414411,4.39034 1.614967,1.30733 5.075761,3.218 8.189168,4.52114 0.652586,0.27315 0.80978,0.36297 0.775456,0.44309 -0.02368,0.0553 -0.08464,0.21547 -0.135463,0.35601 -0.05083,0.14053 -0.119014,0.28757 -0.151528,0.32675 -0.195378,0.23541 -0.378881,0.70113 -0.378881,0.96158 0,0.24514 -0.01699,0.28393 -0.112011,0.25584 -0.159616,-0.0472 -1.166233,-0.23154 -1.264246,-0.23154 -0.148883,0 -0.517374,1.04845 -1.068553,3.0403 -0.214311,0.77448 -0.427207,1.56656 -0.473103,1.76018 -0.174771,0.7373 -0.36367,1.53659 -0.574818,2.43224 -0.120337,0.51045 -0.308149,1.45906 -0.417359,2.10802 -0.167534,0.99554 -0.194798,1.30562 -0.174464,1.9842 0.02195,0.73255 0.04055,0.83708 0.208529,1.1723 0.101435,0.20242 0.225762,0.36804 0.27628,0.36804 0.106804,0 0.974361,-0.44285 1.283205,-0.65502 l 0.211164,-0.14506 0.02103,-0.70407 c 0.01292,-0.43264 0.109838,-1.20991 0.251397,-2.0162 0.126703,-0.72167 0.272552,-1.61456 0.324109,-1.9842 0.08742,-0.62674 0.426328,-1.9411 0.627881,-2.43506 l 0.08826,-0.21629 0.469185,0.88898 c 0.804198,1.52373 2.057035,3.25346 3.001821,4.14445 l 0.455838,0.42989 -0.09653,0.56221 c -0.128168,0.74647 -0.405612,1.63416 -0.875886,2.80243 -0.957948,2.37978 -1.430722,3.10604 -2.241198,3.44286 -0.171436,0.0712 -0.283373,0.14704 -0.248746,0.16844 0.03462,0.0214 -0.388611,0.0415 -0.940524,0.0446 -0.747229,0.004 -1.182339,0.0408 -1.703894,0.14309 -0.54494,0.1069 -0.907238,0.13512 -1.632162,0.12715 -0.512461,-0.006 -1.032558,-0.0206 -1.15577,-0.0332 z"
     id="path3479"
     inkscape:connector-curvature="0" /><path
     style="fill:#28220b"
     id="path3481"
     d="m 11.227536,139.92398 c 1.378445,0.7997 2.719193,1.661 4.070491,2.50485 1.270625,0.79348 1.444233,0.88853 2.68269,1.626 0.764865,0.38319 1.497019,0.88506 2.336233,1.10325 0.403931,0.10502 0.777134,0.0977 1.19241,0.14788 0.25351,0.0307 0.50514,0.0753 0.75771,0.11288 1.27668,0.25062 2.42977,0.83166 3.542561,1.48297 0.273359,0.16 0.538465,0.33381 0.811522,0.49432 0.278748,0.16385 0.562463,0.3191 0.843694,0.47866 1.243613,0.64048 0.579085,0.30534 1.873825,0.94239 0.604796,0.29758 1.06442,0.542 1.687829,0.78449 0.634303,0.24672 1.019984,0.33633 1.681966,0.52171 1.164366,0.35484 2.330279,0.70442 3.49605,1.0545 0.947384,0.28449 0.332728,0.11839 1.151943,0.32868 0.136495,0.0314 0.620912,0.14671 0.769514,0.16643 0.400827,0.0532 0.806011,0.0661 1.208402,0.1057 0.645846,0.0636 0.625888,0.067 1.259043,0.15402 0.46032,0.0562 0.904996,0.2058 1.362374,0.27635 0.317142,0.0489 0.571791,0.043 0.903395,0.0534 2.463144,0.0517 -0.775434,-0.0285 2.099648,0.0895 0.349144,0.0143 2.751969,0.0651 3.010119,0.0705 1.833122,0.0383 1.035417,0.0449 2.555149,-3.5e-4 0.947043,-0.0591 1.8753,-0.2466 2.724301,-0.68183 0.198799,-0.10191 0.382152,-0.2315 0.573228,-0.34724 0.209314,-0.12167 0.412449,-0.25464 0.627942,-0.365 0.220658,-0.11299 0.452466,-0.20275 0.678699,-0.30412 0.909071,-0.31491 1.876974,-0.46435 2.840812,-0.40402 0.632834,0.0396 0.992308,0.16611 1.599986,0.32638 1.096337,0.35556 0.322331,0.0977 1.311874,0.44295 0.269385,0.094 0.494976,0.20577 0.786157,0.18361 0.05331,-0.004 0.09399,-0.0514 0.143427,-0.0718 0.135593,-0.0558 0.274074,-0.1044 0.411111,-0.15659 1.343797,-0.69403 2.68494,-1.39396 4.01643,-2.11152 0.758635,-0.44188 1.603638,-0.68014 2.418842,-0.98846 0.690368,-0.26109 0.663707,-0.25426 1.35628,-0.53123 1.029691,-0.44503 2.113498,-0.73083 3.186497,-1.04621 0.137136,-0.0649 0.30573,-0.072 0.438457,-0.15114 0.05029,-0.03 0.08071,-0.085 0.124362,-0.12403 0.03807,-0.034 0.08098,-0.0622 0.121466,-0.0934 0.216811,-0.12438 0.330287,-0.11869 0.602544,-0.0844 0.06126,0.008 0.113252,0.0528 0.178568,0.0592 0.09652,-0.006 0.308951,0.0182 -0.1108,0.02 -0.01066,5e-5 0.01632,-0.0137 0.02499,-0.0199 0.03019,-0.0216 0.06103,-0.0422 0.09154,-0.0634 0.213784,-0.14371 0.380128,-0.34806 0.572794,-0.5186 0.217692,-0.16801 0.450384,-0.31191 0.700119,-0.4259 0.01746,-0.003 0.06178,-0.025 0.05236,-0.01 -0.01429,0.0228 -0.04674,0.0268 -0.07068,0.0392 -0.0083,0.004 0.18126,-0.12303 0.120424,-0.0598 0.03781,-0.0258 0.402692,0.50887 0.364885,0.53467 l 0,0 c -0.184307,0.10045 -0.0081,0.0124 -0.02541,-0.004 -0.0065,-0.006 -0.184097,0.13648 -0.196329,0.10151 0.02023,-0.0159 0.04017,-0.0321 0.06068,-0.0477 0.0086,-0.007 -0.01706,0.0134 -0.02506,0.0207 -0.02614,0.0239 -0.04955,0.0508 -0.07731,0.0728 -0.0747,0.0591 -0.153138,0.1132 -0.229709,0.16979 -0.04355,0.0322 -0.08903,0.0617 -0.133552,0.0925 -0.224903,0.18048 -0.44893,0.36197 -0.666246,0.55095 -0.07044,0.0378 -0.131477,0.0963 -0.208036,0.11923 -0.202599,0.0607 -0.356109,0.0756 -0.547918,0.0187 -0.02811,-0.0102 -0.05631,-0.0201 -0.08432,-0.0305 -0.02738,-0.0102 -0.112706,-0.0244 -0.08356,-0.0265 0.448644,-0.0326 0.242604,-0.009 0.145124,-0.002 -0.103648,0.037 -0.113102,0.0797 -0.188875,0.16759 -0.08764,0.10163 -0.169854,0.176 -0.286167,0.24756 -0.07992,0.0492 -0.166017,0.0875 -0.249026,0.13128 -0.304311,0.13337 -0.45068,0.20316 -0.776808,0.31915 -0.772041,0.27457 -1.566927,0.49233 -2.300984,0.86609 -0.708771,0.27581 -0.694444,0.28125 -1.40847,0.51619 -0.01629,0.005 -1.073532,0.33422 -1.15809,0.36803 -0.300148,0.12002 -0.84979,0.42183 -1.120198,0.56496 -1.344504,0.79387 -2.720145,1.53768 -4.181001,2.0983 -0.598743,0.21025 -0.574442,0.24946 -1.27343,0.26366 -0.15669,0.003 -0.312768,-0.0248 -0.467598,-0.0491 -0.615086,-0.0965 -1.201944,-0.3131 -1.802222,-0.46962 -0.641887,-0.16442 -0.758139,-0.21155 -1.404752,-0.31048 -0.127603,-0.0195 -0.256381,-0.0379 -0.385468,-0.0373 -0.576274,0.003 -1.132182,0.15138 -1.674825,0.33176 -0.575645,0.23863 -0.662071,0.24539 -1.195075,0.58571 -0.550435,0.35146 -0.735056,0.5841 -1.344299,0.88006 -0.922986,0.44838 -1.19975,0.43736 -2.231743,0.65783 -0.583145,0.0355 -1.165431,0.0904 -1.749436,0.10643 -1.183402,0.0324 -1.982804,-0.0293 -3.162745,-0.14086 -0.781571,-0.0739 -1.745393,-0.19166 -2.531844,-0.32641 -0.300545,-0.0515 -0.598061,-0.11932 -0.897092,-0.17898 -0.295006,-0.0653 -0.587637,-0.14195 -0.884479,-0.19831 -0.29273,-0.0556 -0.5914,-0.0531 -0.887387,-0.0706 -0.166412,-0.01 -0.33253,-0.0241 -0.498794,-0.0361 -0.118344,-0.0121 -1.193023,-0.12138 -1.281769,-0.13451 -0.668603,-0.0989 -1.317586,-0.31032 -1.996353,-0.34435 -0.189212,-0.028 -0.37945,-0.0497 -0.567635,-0.0839 -1.442064,-0.26209 -2.826026,-0.76134 -4.227799,-1.17548 -0.879117,-0.28166 -1.763463,-0.55345 -2.615205,-0.91258 -0.780547,-0.32911 -1.145672,-0.52573 -1.899485,-0.93196 -0.305785,-0.16479 -0.607994,-0.33613 -0.91199,-0.50419 -1.465433,-0.86182 -0.223315,-0.13384 -1.65621,-0.9668 -0.274564,-0.15961 -0.542583,-0.33093 -0.822952,-0.4801 -0.761382,-0.40511 -1.569988,-0.71 -2.401221,-0.93653 -0.33036,-0.06 -1.058674,-0.19422 -1.399026,-0.24833 -0.602838,-0.0958 -0.680513,-0.072 -1.297619,-0.23546 -0.974309,-0.25805 -1.029987,-0.32971 -2.046766,-0.76011 -0.451067,-0.23727 -0.911248,-0.45797 -1.353202,-0.7118 -0.495234,-0.28444 -0.979571,-0.58808 -1.456634,-0.90205 -1.213659,-0.79873 -2.376721,-1.66578 -3.362105,-2.73976 -0.120339,-0.13116 -0.219803,-0.28004 -0.329704,-0.42007 -0.02684,-0.0406 0.548104,-0.42029 0.574948,-0.37963 z"
     inkscape:connector-curvature="0" /><path
     style="fill:#000000"
     id="path3525"
     d="m 7.9825123,147.80083 c 0.3981294,0.311 0.7763383,0.65322 1.1800595,0.95516 0.2591937,0.20313 0.4928464,0.44626 0.7328949,0.67867 0.3120133,0.31077 0.6631413,0.56825 1.0124883,0.81898 0.515951,0.31489 1.05099,0.58964 1.57736,0.8821 0.390905,0.15948 0.741579,0.42459 1.099867,0.662 0.413474,0.13979 0.836936,0.22421 1.258001,0.32762 0.457254,0.18516 0.935953,0.30199 1.37998,0.52858 0.51201,0.14839 1.020786,0.3118 1.538937,0.42911 0.383796,0.12839 0.783229,0.18126 1.169352,0.29613 0.52291,0.15557 -0.004,0.0336 0.517942,0.14336 0.650248,0.21665 1.315174,0.35283 1.981482,0.48628 0.65382,0.14015 1.295499,0.33258 1.939273,0.52372 0.598163,0.22216 1.214026,0.36943 1.831601,0.49687 0.305231,0.0202 0.596546,0.12292 0.892345,0.19942 0.312375,0.0808 0.632216,0.12388 0.946466,0.19457 0.310678,0.11339 0.633798,0.17875 0.946312,0.28313 0.286635,0.0958 0.562185,0.22014 0.851521,0.3068 0.592302,0.16357 1.184011,0.32008 1.771278,0.50906 0.434082,0.17273 0.862532,0.34705 1.307213,0.47754 0.377407,0.14836 0.775482,0.15773 1.162361,0.24664 0.398491,0.10837 0.772944,0.29399 1.15772,0.44855 0.256187,0.15285 0.540726,0.19725 0.816637,0.29387 0.402309,0.10214 0.811661,0.14253 1.203331,0.29502 0.356057,0.094 0.649691,0.33365 0.948513,0.56203 0.215582,0.24962 0.481116,0.20554 0.75434,0.24792 0.326261,0.0467 0.642717,0.13388 0.970494,0.18003 0.267924,0.0348 0.494192,0.19462 0.737791,0.30727 0.350172,0.16192 -0.168723,-0.13467 0.273344,0.13141 0.03885,0.0148 0.07958,0.024 0.116533,0.0443 0.126498,0.0693 0.139984,0.11896 0.265915,0.1526 0.112608,0.0301 0.145196,-0.004 0.266648,0.0105 0.06901,0.008 0.136282,0.0306 0.204423,0.0459 0.503073,0.0811 1.008572,0.13225 1.514459,0.1886 0.593381,0.063 1.172592,0.20993 1.764618,0.27829 0.487294,0.0774 0.976687,0.0191 1.465671,0.008 0.653072,-0.0343 1.307047,-0.0422 1.960707,-0.0453 0.562379,0.007 1.124897,0.033 1.687269,0.0334 -0.0085,0.002 -0.03418,0.004 -0.02554,0.006 0.337401,0.002 0.662349,-0.002 1.001549,0.0281 0.193606,0.0171 0.385627,0.0533 0.578864,0.0753 0.377569,0.02 0.739685,0.16502 1.114167,0.21003 0.108495,0.013 0.218119,0.006 0.327076,0.0117 -0.04315,-0.002 -0.154199,0.033 -0.129439,-0.008 0.02985,-0.0497 0.102756,-0.0201 0.153789,-0.0323 0.417265,-0.0995 0.818679,-0.11527 1.244623,-0.065 0.152277,-0.001 0.774078,0.20309 0.897091,0.12875 0.03372,-0.0203 -0.07502,-0.0141 -0.112533,-0.0213 0.510831,-0.13587 1.006751,-0.31466 1.527846,-0.39842 0.544286,-0.007 1.075492,-0.15625 1.603841,-0.29429 0.446234,-0.11929 0.864189,-0.33851 1.30151,-0.49151 0.260956,-0.0913 0.525344,-0.1688 0.787661,-0.25469 0.674268,-0.1776 1.428162,-0.37812 2.106669,-0.11457 0.08725,0.0252 0.193248,0.0636 0.285187,0.0613 0.02558,-6.1e-4 0.09707,-0.0123 0.07379,-0.0246 -0.04153,-0.0219 -0.162606,0.035 -0.136649,-0.008 0.03158,-0.053 0.109431,-0.0221 0.163545,-0.0366 0.04949,-0.0131 0.09803,-0.0307 0.147058,-0.0461 0.504377,-0.16587 1.002835,-0.36076 1.510652,-0.51268 0.186228,-0.0722 0.384508,-0.0568 0.57521,-0.0889 0.144929,-0.0244 0.291593,-0.0926 0.43177,-0.13913 0.367099,-0.11129 0.734748,-0.2172 1.103582,-0.32098 0.433089,-0.0468 0.740981,-0.17415 1.111616,-0.42356 0.474343,-0.38499 1.015068,-0.61649 1.552435,-0.851 0.562685,-0.23472 1.140081,-0.43154 1.686512,-0.71554 0.439055,-0.26306 0.812957,-0.44693 1.306992,-0.5363 0.316158,-0.0359 0.62932,-0.12774 0.929106,-0.249 0.194508,-0.082 0.318534,-0.25844 0.464448,-0.41703 0.295526,-0.29601 0.653798,-0.48074 1.010227,-0.65445 0.471728,-0.29478 0.942911,-0.58495 1.427035,-0.85235 0.110404,-0.0534 0.217069,-0.11655 0.326185,-0.17337 0.02683,-0.0139 0.06478,-0.0809 0.07706,-0.0499 0.0083,0.0209 -0.01195,0.0489 -0.02926,0.0602 -0.01559,0.0106 0.01537,-0.0374 0.02306,-0.0562 0.139803,-0.48124 0.345504,-0.50177 0.836367,-0.47484 0.07674,0.004 0.136563,0.0818 0.204846,0.12265 0.05377,0.0485 -0.53795,0.93189 -0.591717,0.88327 l 0,0 c -0.167203,-0.12306 0.04318,0.0439 0.416019,-0.1512 0.04927,-0.0258 0.04629,-0.11979 0.04725,-0.17379 -0.01399,0.0441 -0.02007,0.0911 -0.0301,0.13683 -0.11635,0.38529 -0.341533,0.63539 -0.658182,0.80892 -0.490497,0.32769 -1.00791,0.6002 -1.508654,0.90588 -0.188793,0.0799 -0.373472,0.17926 -0.563716,0.25347 -0.0322,0.0126 -0.0683,0.0106 -0.09926,0.0268 -0.06585,0.0346 -0.116652,0.10099 -0.184343,0.13253 -0.10528,0.0643 -0.170621,0.21136 -0.254796,0.3038 -0.110015,0.12081 -0.256115,0.19019 -0.37377,0.29866 -0.350655,0.20201 -0.729399,0.32975 -1.114541,0.41214 -0.375462,0.0401 -0.737599,0.12054 -1.05516,0.37223 -0.557677,0.36588 -1.149437,0.65953 -1.768454,0.85498 -0.498772,0.15999 -0.996255,0.34653 -1.436423,0.67006 -0.421629,0.28998 -0.842204,0.59018 -1.347746,0.61335 -0.357584,0.0559 -0.708539,0.13963 -1.05503,0.25326 -0.331376,0.10382 -0.657377,0.22473 -0.998675,0.27495 -0.499625,0.1575 -0.988173,0.35918 -1.497971,0.47166 -0.457519,0.16884 -0.940145,0.22903 -1.40513,0.0592 -0.0303,8.9e-4 -0.110483,-0.0242 -0.09091,0.002 0.02119,0.0291 0.130792,0.003 0.0982,0.007 -0.07313,0.009 -0.147243,0.002 -0.220633,0.008 -0.337797,0.0288 -0.669409,0.10836 -0.997065,0.20574 -0.381972,0.11352 -0.769596,0.2181 -1.149084,0.34085 -0.246006,0.0796 -0.419984,0.17286 -0.661835,0.26202 -0.105417,0.0389 -0.212824,0.07 -0.319237,0.10509 -0.563791,0.17019 -1.121446,0.2982 -1.706315,0.31151 -0.52721,0.0637 -1.026706,0.26323 -1.545957,0.37367 -0.167064,0.009 -0.333931,0.0267 -0.50119,0.029 -0.313711,0.004 -0.627431,-0.1034 -0.94132,-0.10544 -0.07254,-0.006 -0.145079,-0.0117 -0.217618,-0.0176 0.01782,-0.007 0.07189,-0.0171 0.05347,-0.0221 -0.04981,-0.0134 -0.102434,-0.0106 -0.153372,-0.004 -0.298463,0.0312 -0.578733,0.19663 -0.888182,0.13785 -0.521505,0.004 -1.02513,-0.13183 -1.542401,-0.19332 -0.17985,-0.0312 -0.36312,-0.0401 -0.540327,-0.0876 -0.01423,-0.003 0.0554,-0.0173 0.04083,-0.0185 -0.313778,-0.024 -0.634468,0.0378 -0.947683,0.009 -0.567546,-5e-5 -1.135103,0.0123 -1.702707,-4.3e-4 -0.464522,-0.0124 -0.929285,-0.0315 -1.394889,0.0163 -0.708466,0.0647 -1.421345,0.0721 -2.128584,-0.0182 -0.576118,-0.10183 -1.149623,-0.21403 -1.730748,-0.27672 -0.526687,-0.0509 -1.04335,-0.16824 -1.564835,-0.26463 -0.365417,-0.0641 -0.696062,-0.20855 -1.026002,-0.39766 -0.269959,-0.11293 -0.529431,-0.25676 -0.820231,-0.28615 -0.314223,-0.0632 -0.616771,-0.17981 -0.938003,-0.18678 -0.396902,-0.0431 -0.761279,-0.17126 -1.0699,-0.47841 -0.237412,-0.17436 -0.484591,-0.30967 -0.761609,-0.38096 -0.408698,-0.10005 -0.829969,-0.141 -1.223835,-0.31174 -0.270775,-0.10626 -0.546655,-0.19393 -0.813872,-0.31244 -0.351124,-0.12581 -0.701469,-0.2568 -1.059113,-0.35547 -0.412789,-0.0613 -0.813379,-0.16551 -1.215588,-0.28795 -0.454082,-0.12487 -0.898652,-0.28637 -1.349613,-0.42578 -0.58541,-0.17537 -1.169962,-0.35245 -1.756354,-0.52345 -0.585915,-0.17551 -1.159793,-0.40494 -1.755388,-0.53646 -0.613771,-0.1303 -1.218038,-0.31025 -1.837429,-0.40389 -0.637318,-0.15045 -1.278892,-0.28401 -1.90318,-0.4988 -0.611267,-0.19933 -1.217318,-0.42014 -1.852355,-0.49707 -0.684055,-0.12503 -1.353367,-0.30491 -2.015366,-0.54117 -0.562577,-0.17226 -1.140738,-0.23785 -1.704546,-0.40574 -0.54125,-0.16207 -1.074387,-0.35174 -1.599048,-0.576 -0.435569,-0.14045 -0.876337,-0.25829 -1.310253,-0.40594 -0.484932,-0.13813 -0.980631,-0.26661 -1.423362,-0.54448 -0.349925,-0.22067 -0.733062,-0.36914 -1.096109,-0.55723 -0.563022,-0.30354 -1.139536,-0.58499 -1.660245,-0.98152 -0.3650783,-0.28924 -0.7250202,-0.58852 -1.0419183,-0.94848 -0.2086612,-0.20363 -0.4213824,-0.4051 -0.6657785,-0.54877 -0.4405002,-0.29188 -0.8551981,-0.63342 -1.2095852,-1.05796 -0.047353,-0.0557 0.631034,-0.83363 0.6783863,-0.7779 z"
     inkscape:connector-curvature="0" /><path
     style="fill:#803300"
     d="m 43.758294,152.33151 c -1.012923,-0.0466 -2.07332,-0.1503 -2.579782,-0.25224 -0.47296,-0.0952 -1.369094,-0.21963 -1.99141,-0.27653 -1.36849,-0.12513 -1.472889,-0.15032 -5.114304,-1.23398 -3.61436,-1.0756 -4.649304,-1.53317 -8.550462,-3.78035 -1.624383,-0.93569 -2.716882,-1.30575 -4.395472,-1.48886 -1.281714,-0.13982 -2.027944,-0.49957 -5.519873,-2.66106 -1.04549,-0.64716 -2.437669,-1.50388 -3.093731,-1.90383 l -1.19284,-0.72717 0.39249,-0.7815 c 0.93138,-1.85449 2.342905,-3.5169 4.527712,-5.33247 3.139202,-2.60867 4.438924,-3.06499 9.315494,-3.27056 3.012844,-0.12701 3.971404,-0.31727 5.023158,-0.99706 0.521329,-0.33695 0.586012,-0.35748 0.726269,-0.23055 0.08468,0.0766 0.280624,0.18349 0.435424,0.23746 0.249368,0.0869 0.302998,0.17219 0.470407,0.74791 0.891712,3.06655 2.641192,6.4677 4.571284,8.88699 0.69984,0.87722 2.062011,2.23591 2.766519,2.75945 1.146404,0.85193 4.36589,2.31524 6.01949,2.73595 0.715147,0.18195 1.035825,0.20727 2.625041,0.20727 1.725699,0 1.851636,-0.0121 2.692592,-0.25882 0.493922,-0.14491 0.975109,-0.23551 1.09327,-0.20585 0.116079,0.0291 0.554115,0.014 0.973415,-0.0337 1.300507,-0.14782 2.354131,-0.84324 3.22211,-2.12669 1.234486,-1.82539 2.295602,-4.94419 2.174329,-6.39074 -0.06111,-0.72886 -0.241261,-1.10611 -1.001995,-2.09816 -0.692294,-0.90279 -1.533714,-2.14839 -1.484512,-2.1976 0.07633,-0.0763 1.578051,0.4409 1.83525,0.63211 0.298727,0.22208 1.754558,0.86675 1.957345,0.86675 0.07011,0 1.124791,0.36835 2.343736,0.81855 5.346202,1.97455 6.212513,2.40122 10.434793,5.13921 2.202496,1.42823 2.844973,1.89924 3.504195,2.56894 0.66835,0.67897 0.707439,0.93415 0.485896,3.17201 -0.0512,0.51716 -0.05223,0.51869 -0.214495,0.31829 -0.159066,-0.19644 -0.170918,-0.19761 -0.485075,-0.0478 -0.177114,0.0845 -0.491221,0.30642 -0.698017,0.49324 -0.294025,0.26564 -0.438759,0.33428 -0.663926,0.31488 -0.17958,-0.0155 -0.37267,0.0418 -0.5131,0.15231 -0.123839,0.0974 -0.842762,0.36392 -1.597606,0.59224 -0.754843,0.22832 -1.792399,0.58292 -2.305678,0.78801 -0.513279,0.20508 -1.418713,0.55189 -2.012075,0.77069 -0.593361,0.2188 -1.840486,0.80393 -2.771388,1.30029 -2.341174,1.24832 -3.337328,1.72286 -3.616641,1.72286 -0.131184,0 -0.602575,-0.12351 -1.047534,-0.27446 -1.910279,-0.64806 -2.932737,-0.76745 -4.308654,-0.50312 -0.850523,0.16339 -1.491761,0.41863 -2.331544,0.92804 -1.525756,0.92552 -2.108838,1.03023 -5.638245,1.01253 -1.508103,-0.008 -3.51594,-0.0494 -4.46186,-0.0929 z"
     id="path3541"
     inkscape:connector-curvature="0" /><path
     style="fill:#ac9d93"
     d="m 53.805865,160.74882 c -0.199141,-0.049 -0.735468,-0.0665 -1.191838,-0.0389 -0.583284,0.0352 -1.040388,0.007 -1.538817,-0.0956 -0.564135,-0.11592 -1.393571,-0.14973 -4.058244,-0.16541 -2.03986,-0.012 -3.535111,-0.0592 -3.824766,-0.12066 -0.261565,-0.0555 -1.013025,-0.16663 -1.669908,-0.2469 -1.003315,-0.12261 -1.290905,-0.19459 -1.798137,-0.45003 -0.39418,-0.1985 -0.89726,-0.35498 -1.449077,-0.45072 -0.669491,-0.11616 -0.930792,-0.20809 -1.256514,-0.44204 -0.490178,-0.35207 -0.748889,-0.45779 -1.58787,-0.64888 -0.348432,-0.0794 -0.979319,-0.28744 -1.401971,-0.4624 -0.422652,-0.17496 -1.063335,-0.37452 -1.423741,-0.44348 -0.360405,-0.069 -0.971887,-0.24658 -1.358847,-0.39472 -0.386961,-0.14814 -1.131266,-0.39303 -1.654011,-0.54421 -0.522745,-0.15117 -1.252823,-0.37813 -1.622396,-0.50435 -0.369571,-0.12622 -1.32417,-0.37314 -2.121329,-0.54871 -0.797159,-0.17557 -1.92045,-0.46259 -2.496203,-0.63784 -0.575753,-0.17524 -1.494891,-0.4192 -2.042529,-0.54212 -0.547638,-0.12292 -1.423406,-0.33985 -1.946151,-0.48207 -0.522745,-0.14222 -1.378147,-0.37071 -1.900892,-0.50776 -0.522745,-0.13705 -1.255081,-0.3685 -1.627413,-0.51434 -0.372332,-0.14583 -1.03388,-0.36067 -1.470107,-0.47741 -0.436226,-0.11674 -0.905525,-0.29056 -1.042887,-0.38627 -0.137361,-0.0957 -0.616349,-0.37063 -1.064416,-0.61096 -1.219427,-0.65406 -1.747709,-1.00822 -2.3508173,-1.576 -0.3001788,-0.28259 -0.8105467,-0.73122 -1.1341509,-0.99695 -0.3236042,-0.26573 -0.5762279,-0.53921 -0.561386,-0.60772 0.045185,-0.20859 1.77109,-4.70664 2.2780372,-5.93702 0.261537,-0.63476 0.503166,-1.15411 0.536951,-1.15411 0.03379,0 0.263565,0.20755 0.51062,0.46123 1.464823,1.50411 4.970918,3.69629 7.010502,4.3833 0.37268,0.12553 1.268815,0.32835 1.991411,0.45071 2.126159,0.36002 2.838606,0.6266 4.909599,1.83707 3.003083,1.75526 4.056061,2.25506 6.226786,2.95556 2.430743,0.78441 4.106821,1.23545 5.246577,1.41186 0.623529,0.0965 1.459556,0.23401 1.857838,0.30555 0.398282,0.0715 1.131483,0.1569 1.629336,0.1897 0.497852,0.0328 1.495821,0.1762 2.217707,0.31867 2.267439,0.4475 3.635458,0.58072 5.974231,0.5818 2.890247,0.001 3.838492,-0.2121 5.268437,-1.18579 0.952233,-0.64839 1.460258,-0.89715 2.306212,-1.12923 0.92738,-0.25442 1.701482,-0.19757 3.197072,0.2348 1.426381,0.41236 2.320977,0.49376 2.99562,0.27257 0.806191,-0.26432 2.202742,-0.918 3.464748,-1.62174 1.720607,-0.95948 1.853712,-1.02057 3.290885,-1.51044 0.718338,-0.24486 1.423913,-0.50613 1.567945,-0.58061 0.14403,-0.0745 0.877394,-0.35673 1.629697,-0.62721 0.752303,-0.27049 1.504349,-0.59593 1.671214,-0.7232 0.180606,-0.13776 0.421651,-0.23141 0.595605,-0.23141 0.219378,0 0.470385,-0.13783 1.006996,-0.55295 0.393129,-0.30412 0.731986,-0.53574 0.753018,-0.51471 0.02103,0.021 -0.0262,0.80958 -0.104958,1.75232 -0.102687,1.22919 -0.128006,2.2427 -0.0895,3.58272 l 0.05369,1.86864 -0.210024,0.0527 c -0.115514,0.029 -0.25319,0.14534 -0.305949,0.25855 -0.05788,0.12422 -0.592692,0.493 -1.348658,0.92999 -0.689004,0.39828 -1.444009,0.89329 -1.677789,1.10003 -0.34475,0.30486 -0.550344,0.40386 -1.088233,0.52403 -0.364749,0.0815 -0.948314,0.28664 -1.296811,0.45587 -0.348497,0.16924 -1.102065,0.50566 -1.674595,0.7476 -0.572531,0.24194 -1.305732,0.61264 -1.629336,0.82377 -0.323604,0.21114 -0.690205,0.40621 -0.814668,0.4335 -0.54393,0.11925 -2.305748,0.6132 -3.303931,0.92629 -0.740479,0.23227 -1.158254,0.3202 -1.312521,0.27625 -0.723268,-0.20605 -1.7689,-0.0326 -3.289527,0.54564 -0.525114,0.19968 -1.313441,0.42757 -1.751839,0.50641 -0.737946,0.13271 -1.881337,0.40163 -2.200126,0.51745 -0.07468,0.0271 -0.298712,0.009 -0.497853,-0.0397 z"
     id="path3545"
     inkscape:connector-curvature="0" /><path
     style="fill:#803300"
     d="m 37.488398,167.87314 c -7.03345,-0.91349 -13.964579,-3.80982 -20.328623,-8.49476 -2.549783,-1.87705 -8.9256841,-7.90388 -9.5031384,-8.98286 -0.6915802,-1.29223 0.2592924,-1.29662 1.8815071,-0.009 2.7833703,2.20981 4.5137663,2.8764 13.3918073,5.15879 6.919775,1.77896 11.497442,3.14512 13.577799,4.05216 2.733893,1.19199 4.443195,1.47857 10.801769,1.81104 6.592517,0.34471 7.759433,0.27708 11.827895,-0.68547 0.896135,-0.21202 2.851338,-0.6669 4.344896,-1.01084 1.493558,-0.34395 3.856095,-1.14687 5.250082,-1.78427 1.393987,-0.63739 2.941856,-1.34543 3.439709,-1.57342 0.497853,-0.228 1.689545,-0.90245 2.648207,-1.49879 l 1.743023,-1.08425 -0.113688,1.17978 c -0.09712,1.00792 -0.482873,1.43004 -2.648206,2.89785 -3.064871,2.07759 -9.922036,5.61565 -13.396762,6.91226 -7.867295,2.93573 -15.886296,4.02452 -22.916277,3.11147 z"
     id="path3553"
     inkscape:connector-curvature="0" /></svg>